<svg xmlns="http://www.w3.org/2000/svg" width="121.034" height="84.561" viewBox="0 0 121.034 84.561">
  <g id="Komponente_38_1" data-name="Komponente 38 – 1" transform="translate(1.277 1.5)">
    <rect id="Rechteck_29" data-name="Rechteck 29" width="56" height="80" rx="1" transform="translate(21.527 3.061)" fill="#f0f023"/>
    <g id="Gruppe_464" data-name="Gruppe 464" transform="translate(0 0)">
      <path id="Pfad_31" data-name="Pfad 31" d="M63.319,108.236v45.424h54.758v-12.2" transform="translate(-46.651 -75.711)" fill="none" stroke="#1a1a1a" stroke-linecap="round" stroke-linejoin="round" stroke-width="3"/>
      <path id="Pfad_32" data-name="Pfad 32" d="M118.159,93.862V63.154H63.319V71.14" transform="translate(-46.651 -63.154)" fill="none" stroke="#1a1a1a" stroke-linecap="round" stroke-linejoin="round" stroke-width="3"/>
      <rect id="Rechteck_24" data-name="Rechteck 24" width="55.191" height="25.756" transform="translate(63.066 35.758)" fill="none" stroke="#1a1a1a" stroke-linejoin="round" stroke-width="3"/>
      <rect id="Rechteck_25" data-name="Rechteck 25" width="21.289" height="13.775" transform="translate(0 12.87)" fill="none" stroke="#1a1a1a" stroke-linejoin="round" stroke-width="2.555"/>
      <path id="Pfad_33" data-name="Pfad 33" d="M124.356,63.229v17.29l-4.992-3.071-4.992,3.071V63.229Z" transform="translate(-60.872 -63.175)" fill="none" stroke="#1a1a1a" stroke-linejoin="round" stroke-width="2.5"/>
      <path id="Pfad_34" data-name="Pfad 34" d="M146.045,113.058v14.734l-4.254-2.617-4.254,2.617V113.058Z" transform="translate(-67.324 -77.055)" fill="none" stroke="#1a1a1a" stroke-linejoin="round" stroke-width="2.5"/>
      <path id="Pfad_35" data-name="Pfad 35" d="M50.136,80.731V89.3l-2.473-1.522L45.189,89.3V80.731Z" transform="translate(-41.601 -68.05)" fill="none" stroke="#1a1a1a" stroke-linejoin="round" stroke-width="2"/>
    </g>
  </g>
</svg>
