<svg xmlns="http://www.w3.org/2000/svg" width="106.818" height="77.793" viewBox="0 0 106.818 77.793">
  <g id="digital" transform="translate(1.5 1.5)">
    <rect id="Rechteck_30" data-name="Rechteck 30" width="99" height="62" rx="1" transform="translate(4.738 3.863)" fill="#f0f023"/>
    <g id="Gruppe_3" data-name="Gruppe 3">
      <path id="Pfad_4" data-name="Pfad 4" d="M125.587,150.916v14.729h-11.85V150.916" transform="translate(-70.713 -91.152)" fill="none" stroke="#1d1a1c" stroke-miterlimit="10" stroke-width="3"/>
      <path id="Pfad_5" data-name="Pfad 5" d="M60.957,127.841H54.1V68.077h98.208V94.51" transform="translate(-54.102 -68.077)" fill="none" stroke="#1d1a1c" stroke-linecap="round" stroke-linejoin="round" stroke-width="3"/>
      <line id="Linie_6" data-name="Linie 6" x1="42.884" transform="translate(27.667 59.764)" fill="#fff" stroke="#1d1a1c" stroke-linecap="round" stroke-linejoin="round" stroke-width="3"/>
      <ellipse id="Ellipse_1" data-name="Ellipse 1" cx="1.676" cy="1.676" rx="1.676" ry="1.676" transform="translate(47.428 52.663)" fill="#1d1a1c"/>
      <rect id="Rechteck_20" data-name="Rechteck 20" width="13.484" height="28.392" rx="3.562" transform="translate(10.491 46.401)" fill="none" stroke="#1d1a1c" stroke-miterlimit="10" stroke-width="3"/>
      <line id="Linie_7" data-name="Linie 7" x2="20.44" transform="translate(38.573 74.793)" fill="none" stroke="#1d1a1c" stroke-linecap="round" stroke-miterlimit="10" stroke-width="3"/>
      <ellipse id="Ellipse_2" data-name="Ellipse 2" cx="1.202" cy="1.202" rx="1.202" ry="1.202" transform="translate(16.029 68.157)" fill="#1d1a1c"/>
      <path id="Pfad_12" data-name="Pfad 12" d="M1.364,0h26.55a1.364,1.364,0,0,1,1.364,1.364V41.9a1.364,1.364,0,0,1-1.364,1.364H1.364A1.364,1.364,0,0,1,0,41.9V1.364A1.364,1.364,0,0,1,1.364,0Z" transform="translate(74.539 31.528)" fill="none" stroke="#1d1a1c" stroke-width="3"/>
      <line id="Linie_8" data-name="Linie 8" x2="7.122" transform="translate(85.041 70.417)" fill="none" stroke="#1d1a1c" stroke-linecap="round" stroke-miterlimit="10" stroke-width="3"/>
    </g>
  </g>
</svg>
