<svg xmlns="http://www.w3.org/2000/svg" width="127.104" height="83.455" viewBox="0 0 127.104 83.455">
  <g id="photo" transform="translate(1.5 1.5)">
    <path id="Pfad_43" data-name="Pfad 43" d="M77.009,112.982h-8.1l-1.84-4.99a3.5,3.5,0,0,0-3.281-2.287H53.2a3.5,3.5,0,0,0-3.281,2.287l-1.839,4.99h-8.1a3.5,3.5,0,0,0-3.5,3.5V134.1a3.5,3.5,0,0,0,3.5,3.5H77.009a3.5,3.5,0,0,0,3.5-3.5V116.478A3.5,3.5,0,0,0,77.009,112.982Z" transform="translate(-30.477 -79.506)" fill="#f0f023"/>
    <path id="Pfad_44" data-name="Pfad 44" d="M137.255,74.935c.728,3.266-4.437,16.779-6.97,18.233,2.055,2.123,3.941,5.782,5.009,10.157a23.962,23.962,0,0,1,.433,10.568c.255.308,9.926,1.259,15.143,10.4,0,0,19.185-9.981,14.288-30.043C160.849,76.593,137.255,74.935,137.255,74.935Z" transform="translate(-55.607 -71.935)" fill="#f0f023"/>
    <g id="Gruppe_5" data-name="Gruppe 5">
      <path id="Pfad_13" data-name="Pfad 13" d="M117.366,140.473v16.651H47.579" transform="translate(-39.569 -93.191)" fill="none" stroke="#1d1a1c" stroke-linecap="round" stroke-miterlimit="10" stroke-width="3"/>
      <path id="Pfad_14" data-name="Pfad 14" d="M47.579,102.824V86.459h59.1" transform="translate(-39.569 -78.145)" fill="none" stroke="#1d1a1c" stroke-linecap="round" stroke-linejoin="round" stroke-width="3"/>
      <path id="Pfad_15" data-name="Pfad 15" d="M120.707,179.384H38.851l6.3-15.831h69.787Z" transform="translate(-37.138 -99.62)" fill="none" stroke="#1d1a1c" stroke-linecap="round" stroke-linejoin="round" stroke-width="3"/>
      <path id="Pfad_16" data-name="Pfad 16" d="M38.851,86.459" transform="translate(-37.138 -78.145)" fill="none" stroke="#1d1a1c" stroke-linecap="round" stroke-miterlimit="10" stroke-width="3"/>
      <path id="Pfad_17" data-name="Pfad 17" d="M77.009,112.982h-8.1l-1.84-4.99a3.5,3.5,0,0,0-3.281-2.287H53.2a3.5,3.5,0,0,0-3.281,2.287l-1.839,4.99h-8.1a3.5,3.5,0,0,0-3.5,3.5V134.1a3.5,3.5,0,0,0,3.5,3.5H77.009a3.5,3.5,0,0,0,3.5-3.5V116.478A3.5,3.5,0,0,0,77.009,112.982Z" transform="translate(-36.476 -83.506)" fill="none" stroke="#1d1a1c" stroke-linecap="round" stroke-miterlimit="10" stroke-width="3"/>
      <ellipse id="Ellipse_6" data-name="Ellipse 6" cx="1.486" cy="1.486" rx="1.486" ry="1.486" transform="translate(37.443 33.032)" fill="#1d1a1c"/>
      <line id="Linie_10" data-name="Linie 10" y2="47.665" transform="translate(106.401 21.786)" fill="none" stroke="#1d1a1c" stroke-linecap="round" stroke-miterlimit="10" stroke-width="3"/>
      <path id="Pfad_18" data-name="Pfad 18" d="M194.685,176.893l-17.1-22.6L161.071,176.3" transform="translate(-71.182 -97.04)" fill="none" stroke="#1d1a1c" stroke-linecap="round" stroke-miterlimit="10" stroke-width="3"/>
      <path id="Pfad_19" data-name="Pfad 19" d="M179.257,103.632l4.654-1.011a1.138,1.138,0,0,0,.871-1.354l-.651-3a1.138,1.138,0,0,0-1.355-.871l-4.378.951" transform="translate(-76.008 -81.185)" fill="none" stroke="#1d1a1c" stroke-linecap="round" stroke-miterlimit="10" stroke-width="3"/>
      <ellipse id="Ellipse_7" data-name="Ellipse 7" cx="9.059" cy="9.059" rx="9.059" ry="9.059" transform="translate(12.956 31.301)" fill="none" stroke="#1d1a1c" stroke-miterlimit="10" stroke-width="3"/>
      <path id="Pfad_20" data-name="Pfad 20" d="M137.255,74.935c.728,3.266-4.437,16.779-6.97,18.233,2.055,2.123,3.941,5.782,5.009,10.157a23.962,23.962,0,0,1,.433,10.568c.255.308,9.926,1.259,15.143,10.4,0,0,19.185-9.981,14.288-30.043C160.849,76.593,137.255,74.935,137.255,74.935Z" transform="translate(-62.607 -74.935)" fill="none" stroke="#1d1a1c" stroke-linecap="round" stroke-linejoin="round" stroke-width="3"/>
      <path id="Pfad_21" data-name="Pfad 21" d="M132.183,99.146s14.182-7.234,33.5,1.031" transform="translate(-63.135 -80.863)" fill="none" stroke="#1d1a1c" stroke-linecap="round" stroke-linejoin="round" stroke-width="3"/>
      <path id="Pfad_22" data-name="Pfad 22" d="M138.963,120.716s20.5-3.915,28.612-19.01" transform="translate(-65.024 -82.392)" fill="none" stroke="#1d1a1c" stroke-linecap="round" stroke-linejoin="round" stroke-width="3"/>
      <path id="Pfad_23" data-name="Pfad 23" d="M47.579,156.412" transform="translate(-39.569 -97.63)" fill="none" stroke="#1d1a1c" stroke-miterlimit="10" stroke-width="3"/>
      <line id="Linie_11" data-name="Linie 11" y1="5.153" transform="translate(8.01 58.781)" fill="none" stroke="#1d1a1c" stroke-linecap="round" stroke-miterlimit="10" stroke-width="3"/>
      <line id="Linie_12" data-name="Linie 12" x1="6.297" transform="translate(1.714 8.314)" fill="none" stroke="#1d1a1c" stroke-linecap="round" stroke-linejoin="round" stroke-width="3"/>
    </g>
  </g>
</svg>
