<svg xmlns="http://www.w3.org/2000/svg" width="108.313" height="84.377" viewBox="0 0 108.313 84.377">
  <g id="product" transform="translate(1.5 1.5)">
    <path id="Pfad_42" data-name="Pfad 42" d="M157.548,99.824c.092-4.982,5.308-10.842,8.765-13.2V64.093H173.7V86.621c3.456,2.361,8.766,8.24,8.766,13.2,0,4.266-.043,32.7-.055,40.607a2.042,2.042,0,0,1-2.045,2.039H161.141a3.69,3.69,0,0,1-3.693-3.7C157.466,129.162,157.515,103.851,157.548,99.824Z" transform="translate(-77.152 -61.093)" fill="#f0f023" stroke="#f7f759" stroke-linecap="round" stroke-linejoin="round" stroke-width="3"/>
    <rect id="Rechteck_33" data-name="Rechteck 33" width="35" height="66" rx="1" transform="translate(31.438 7)" fill="#f0f023"/>
    <g id="Gruppe_4" data-name="Gruppe 4" transform="translate(0)">
      <path id="Pfad_6" data-name="Pfad 6" d="M90.761,104.873,90.7,69.808h43.151v74.036H96.262" transform="translate(-63.559 -65.685)" fill="none" stroke="#1a1a1a" stroke-linecap="round" stroke-linejoin="round" stroke-width="3"/>
      <ellipse id="Ellipse_3" data-name="Ellipse 3" cx="1.738" cy="1.738" rx="1.738" ry="1.738" transform="translate(35.416 9.749)" fill="#1a1a1a"/>
      <ellipse id="Ellipse_4" data-name="Ellipse 4" cx="1.738" cy="1.738" rx="1.738" ry="1.738" transform="translate(58.682 9.749)" fill="#1a1a1a"/>
      <path id="Pfad_7" data-name="Pfad 7" d="M127.748,80.977a11.633,11.633,0,0,1-23.266,0" transform="translate(-67.398 -68.796)" fill="none" stroke="#1a1a1a" stroke-linejoin="round" stroke-width="3"/>
      <path id="Pfad_9" data-name="Pfad 9" d="M150.512,69.808l5.6,4.842V91.163" transform="translate(-80.22 -65.685)" fill="none" stroke="#1a1a1a" stroke-linecap="round" stroke-linejoin="round" stroke-width="3"/>
      <path id="Pfad_10" data-name="Pfad 10" d="M53.08,125.961v32.547c0,1.781,6.362,3.226,14.209,3.226S81.5,160.289,81.5,158.508V125.961" transform="translate(-53.08 -81.326)" fill="none" stroke="#1a1a1a" stroke-linejoin="round" stroke-width="3"/>
      <ellipse id="Ellipse_5" data-name="Ellipse 5" cx="14.209" cy="3.226" rx="14.209" ry="3.226" transform="translate(0 41.408)" fill="none" stroke="#1a1a1a" stroke-linejoin="round" stroke-width="3"/>
      <path id="Pfad_11" data-name="Pfad 11" d="M157.548,99.824c.092-4.982,5.308-10.842,8.765-13.2V64.093H173.7V86.621c3.456,2.361,8.766,8.24,8.766,13.2,0,4.266-.043,32.7-.055,40.607a2.042,2.042,0,0,1-2.045,2.039H161.141a3.69,3.69,0,0,1-3.693-3.7C157.466,129.162,157.515,103.851,157.548,99.824Z" transform="translate(-82.152 -64.093)" fill="none" stroke="#1a1a1a" stroke-linecap="round" stroke-linejoin="round" stroke-width="3"/>
      <line id="Linie_9" data-name="Linie 9" x1="6.368" transform="translate(84.161 4.752)" fill="#fff" stroke="#1a1a1a" stroke-linecap="round" stroke-linejoin="round" stroke-width="3"/>
      <path id="Rechteck_22" data-name="Rechteck 22" d="M0,0H11.193a2.835,2.835,0,0,1,2.835,2.835V20.693a2.835,2.835,0,0,1-2.835,2.835H0a0,0,0,0,1,0,0V0A0,0,0,0,1,0,0Z" transform="translate(100.304 71.537) rotate(-180)" fill="none" stroke="#1a1a1a" stroke-linecap="round" stroke-linejoin="round" stroke-width="3"/>
      <rect id="Rechteck_23" data-name="Rechteck 23" width="16.446" height="16.446" rx="1.417" transform="translate(5.411 55.32)" fill="none" stroke="#1a1a1a" stroke-linecap="round" stroke-linejoin="round" stroke-width="3"/>
    </g>
  </g>
</svg>
