<svg xmlns="http://www.w3.org/2000/svg" xmlns:xlink="http://www.w3.org/1999/xlink" width="78.417" height="82.071" viewBox="0 0 78.417 82.071">
  <defs>
    <filter id="Pfad_293" x="0" y="0" width="78.417" height="82.071" filterUnits="userSpaceOnUse">
      <feOffset dx="1" dy="2" input="SourceAlpha"/>
      <feGaussianBlur stdDeviation="2.5" result="blur"/>
      <feFlood flood-opacity="0.537"/>
      <feComposite operator="in" in2="blur"/>
      <feComposite in="SourceGraphic"/>
    </filter>
  </defs>
  <g id="Komponente_37_1" data-name="Komponente 37 – 1" transform="translate(6.5 5.5)">
    <g transform="matrix(1, 0, 0, 1, -6.5, -5.5)" filter="url(#Pfad_293)">
      <path id="Pfad_293-2" data-name="Pfad 293" d="M199.008,385.8l3.777-11.127,3.774,11.127h6.619l7.515-22.146h-6.36l-4.2,13.563-.24.741h-.052l-.24-.741-4.2-13.563h-5.244l-4.2,13.563-.241.741h-.052l-.239-.741-4.2-13.563h-6.362l7.516,22.146Zm6.6,40.225H184.873v4.7h20.734Zm-13.431-18.164h6.215l1.088,3.913h6.078l-6.548-22.149h-6.619l-7.516,22.149h6.078ZM195.2,398.2l.23-.74h.049l.23.74,1.476,5.313h-3.65Zm42.107,9.944c1.94-2.761,2.169-5.522,2.226-8.754H228.28v4.523h4.629c-.232,2.556-2.113,3.851-4.572,3.851-3.732,0-5.759-3.5-5.759-6.933,0-3.379,1.939-6.993,5.673-6.993a4.94,4.94,0,0,1,4.715,3.525l5.382-2.293a10.132,10.132,0,0,0-9.838-6.2c-7.034,0-11.835,4.729-11.835,11.927,0,6.964,4.774,11.691,11.633,11.691A10.487,10.487,0,0,0,237.308,408.148Zm2.226-28.519c0-3.085-1.33-5.229-4.455-5.641v-.057c1.767-.913,2.4-2.526,2.4-4.524,0-4.23-2.605-5.757-6.482-5.757h-8.1V385.8h8.74C235.629,385.8,239.534,384.271,239.534,379.629Zm-10.966-11.573h.406c1.532,0,3.3.116,3.3,2.143,0,1.883-1.565,2.143-3.067,2.143h-.638Zm.724,13.337h-.724v-4.76h.58c1.852,0,4.657-.263,4.657,2.409C233.805,381.479,230.97,381.393,229.292,381.393Zm-16.373,20.479h1.828v-4.021h-1.828v-1.4c0-1.705.468-2.53,1.828-2.53h.608V388.9a8.011,8.011,0,0,0-1.016-.065,7.626,7.626,0,0,0-5.623,2.411c-1.388,1.6-1.5,3.213-1.506,5.183,0,.083,0,1.421,0,1.421h-1.653v4.021h1.653v9.9h5.709Zm30.237-33a3.084,3.084,0,0,0,.955.657,2.94,2.94,0,0,0,2.338,0,3.083,3.083,0,0,0,.954-.657,3.131,3.131,0,0,0,.648-.97,3.073,3.073,0,0,0,0-2.373,3.125,3.125,0,0,0-.648-.969,3.074,3.074,0,0,0-.954-.657,2.941,2.941,0,0,0-2.338,0,3.076,3.076,0,0,0-.955.657,3.128,3.128,0,0,0-.647.969,3.063,3.063,0,0,0,0,2.373A3.134,3.134,0,0,0,243.156,368.869ZM243,365.735a2.526,2.526,0,0,1,.53-.8,2.492,2.492,0,0,1,.789-.538,2.455,2.455,0,0,1,1.926,0,2.524,2.524,0,0,1,0,4.632,2.45,2.45,0,0,1-1.926,0,2.478,2.478,0,0,1-.789-.538,2.519,2.519,0,0,1-.53-.8,2.558,2.558,0,0,1,0-1.955Zm1.755,1.273h.461l.858,1.43h.664l-.89-1.479a.966.966,0,0,0,.585-.271.933.933,0,0,0,.232-.69,1,1,0,0,0-.3-.78,1.326,1.326,0,0,0-.918-.271h-1.327v3.491h.631Zm0-1.52h.461c.1,0,.195,0,.291.008a.79.79,0,0,1,.263.058.453.453,0,0,1,0,.837.844.844,0,0,1-.263.062c-.1.009-.194.013-.291.013h-.461Z" transform="translate(-178.37 -358.15)" fill="#fff"/>
    </g>
  </g>
</svg>
