<svg xmlns="http://www.w3.org/2000/svg" xmlns:xlink="http://www.w3.org/1999/xlink" width="190.496" height="235.876" viewBox="0 0 190.496 235.876"><defs><filter id="a" x="0" y="0" width="190.496" height="235.876" filterUnits="userSpaceOnUse"><feOffset dy="3" input="SourceAlpha"/><feGaussianBlur stdDeviation="3" result="b"/><feFlood flood-opacity="0.251"/><feComposite operator="in" in2="b"/><feComposite in="SourceGraphic"/></filter></defs><g transform="matrix(1, 0, 0, 1, 0, 0)" filter="url(#a)"><path d="M211.22,404.929l7.04-20.74,7.035,20.74h12.338L251.64,363.65H239.785l-7.825,25.28-.447,1.381h-.1l-.448-1.381-7.823-25.28H213.37l-7.823,25.28-.45,1.381H205l-.445-1.381-7.826-25.28H184.873l14.009,41.279ZM252.807,530.8V514.93h-2.118v13.044h-.042l-8.611-13.044h-2.784V530.8h2.123V517.753h.043l8.7,13.045Zm-29.288-50.891H184.873v8.76h38.646Zm-3.828,37.042V514.93H209.6V530.8h10.485v-2.019H211.72v-5.087h7.418v-2.017H211.72v-4.727Zm-21.206-70.9H210.07l2.027,7.294h11.329L211.22,412.058H198.882l-14.009,41.285H196.2Zm5.639-17.992.429-1.38h.092l.429,1.38,2.752,9.9h-6.8ZM193.68,574.26h3.468v4.416a8.14,8.14,0,0,1-3.842.83,6.082,6.082,0,0,1-6.071-6.318c0-3.475,2.315-6.324,5.893-6.324a5.889,5.889,0,0,1,4.33,1.683l1.5-1.636c-1.215-1.276-2.96-2.059-5.83-2.059a8.339,8.339,0,0,0,.221,16.675,12.557,12.557,0,0,0,5.919-1.458v-7.823H193.68Zm76.067-34.172v10.065a6.052,6.052,0,1,0,12.1,0V540.088h-2.121v9.725c0,1.977-.971,4.531-3.93,4.531s-3.928-2.554-3.928-4.531v-9.725Zm-1.779-23.141V514.93H257.877V530.8h10.485v-2.019H260v-5.087h7.418v-2.017H260v-4.727ZM316.809,531.2a8.34,8.34,0,1,0-8.146-8.339A8.015,8.015,0,0,0,316.809,531.2Zm0-14.657c3.574,0,5.893,2.844,5.893,6.318s-2.318,6.321-5.893,6.321-5.893-2.847-5.893-6.321S313.229,516.545,316.809,516.545Zm-34.2-69.953c3.616-5.146,4.043-10.293,4.15-16.317H265.781v8.43h8.629c-.432,4.764-3.938,7.177-8.522,7.177-6.956,0-10.734-6.519-10.734-12.923,0-6.3,3.615-13.034,10.573-13.034,4.259,0,7.334,2.63,8.789,6.571l10.032-4.274c-3.506-7.714-9.976-11.551-18.338-11.551-13.11,0-22.06,8.815-22.06,22.231,0,12.98,8.9,21.791,21.684,21.791C272.63,454.693,278.617,452.231,282.608,446.591Zm4.15-53.157c0-5.75-2.479-9.746-8.3-10.515v-.106c3.293-1.7,4.478-4.708,4.478-8.432,0-7.885-4.856-10.731-12.081-10.731h-15.1v41.279h16.291C279.479,404.929,286.758,402.086,286.758,393.434Zm-20.44-21.571h.757c2.855,0,6.15.217,6.15,3.995,0,3.51-2.916,3.995-5.718,3.995h-1.19Zm1.35,24.859h-1.35v-8.873H267.4c3.452,0,8.681-.491,8.681,4.49C276.08,396.882,270.795,396.722,267.668,396.722ZM231.554,542.107v-2.018H221.463v15.87h10.485V553.94H223.58v-5.087H231v-2.019H223.58v-4.728Zm6.994.81h.043l8.7,13.042h2.69v-15.87h-2.117v13.049h-.043l-8.611-13.049h-2.781v15.87h2.12Zm-1.4-108.023h3.407v-7.5h-3.407v-2.6c0-3.178.872-4.716,3.407-4.716h1.134v-9.361a14.938,14.938,0,0,0-1.894-.121c-3.728,0-8.049,1.587-10.48,4.494-2.588,2.985-2.794,5.989-2.807,9.66,0,.155,0,2.648,0,2.648h-3.081v7.5h3.081v18.449h10.642Zm-1.726,95.9-4.439-7.237a4.236,4.236,0,0,0,3.844-4.192c0-2-1.017-4.439-5.014-4.439h-5.5V530.8h2.12V523.8H228.8l3.976,6.992Zm-8.985-8.876v-5.11h2.782c1.678,0,3.356.405,3.356,2.557s-1.678,2.553-3.356,2.553ZM328,538.524a1.347,1.347,0,1,0-1.371-1.415A1.354,1.354,0,0,0,328,538.524Zm1.738,35.736H333.2v4.416a8.138,8.138,0,0,1-3.844.83,6.084,6.084,0,0,1-6.071-6.318c0-3.475,2.319-6.324,5.893-6.324a5.888,5.888,0,0,1,4.332,1.683l1.5-1.636c-1.216-1.276-2.96-2.059-5.832-2.059a8.339,8.339,0,0,0,.224,16.675,12.534,12.534,0,0,0,5.914-1.458v-7.823h-5.584ZM314.322,578.3h-.043l-8.611-13.044h-2.781V581.12h2.12V568.078h.044l8.7,13.042h2.69V565.252h-2.118ZM191.778,540.088l-6.887,15.87h2.474l1.548-3.923h7.436l1.571,3.923h2.472l-6.692-15.87Zm-2.117,10.065,2.959-7.283h.043l2.916,7.283ZM297.4,544.528c0-1.993-1.017-4.439-5.014-4.439h-5.5v15.87h2.118v-6.992h2.364l3.974,6.992h2.65l-4.439-7.239A4.233,4.233,0,0,0,297.4,544.528Zm-8.392,2.558v-5.113h2.784c1.677,0,3.353.4,3.353,2.555s-1.676,2.558-3.353,2.558Zm16.739-20.7a3.807,3.807,0,0,0-3.379-3.945v-.043a3.57,3.57,0,0,0,2.7-3.5c0-2.687-2.031-3.966-4.747-3.966h-5.433V530.8h5.365C303.294,530.8,305.744,529.228,305.744,526.382ZM297,516.811h3.333a2.232,2.232,0,0,1,2.471,2.331c0,1.73-1.3,2.38-2.913,2.38H297Zm3.113,12.1H297V523.4h3.132c2.055,0,3.356.939,3.356,2.823C303.491,528.463,301.394,528.913,300.116,528.913Zm10.057,27.045h2.118V549.1h7.174v-2.015h-7.174v-4.979H320v-2.018h-9.824Zm24-6.145c0,1.977-.975,4.531-3.931,4.531s-3.931-2.554-3.931-4.531v-9.725H324.2v10.065a6.051,6.051,0,1,0,12.1,0V540.088h-2.117Zm18.749-26.253a4.232,4.232,0,0,0,3.844-4.192c0-2-1.012-4.439-5.014-4.439h-5.5V530.8h2.121V523.8h2.365l3.975,6.992h2.65Zm-4.546-1.639v-5.11h2.782c1.678,0,3.356.405,3.356,2.557s-1.678,2.553-3.356,2.553Zm3.244,22.606c0-1.993-1.016-4.439-5.014-4.439h-5.5v15.87h2.118v-6.992h2.361l3.977,6.992h2.649l-4.439-7.239A4.233,4.233,0,0,0,351.623,544.528Zm-8.392,2.558v-5.113h2.781c1.678,0,3.356.4,3.356,2.555s-1.678,2.558-3.356,2.558Zm-9.366-9.976a1.37,1.37,0,1,0-1.368,1.415A1.348,1.348,0,0,0,333.865,537.109Zm7.3-6.312V514.93h-2.121v6.592h-8.1V514.93h-2.118V530.8h2.118v-7.261h8.1V530.8Zm-45.544,44.181c0,1.971-.972,4.527-3.933,4.527s-3.925-2.556-3.925-4.527v-9.725h-2.121v10.066a6.052,6.052,0,1,0,12.1,0V565.252h-2.12ZM220.4,569.286c0-.986.706-2.424,3.048-2.424a3.261,3.261,0,0,1,2.781,1.394l1.724-1.59a5.359,5.359,0,0,0-4.506-1.816c-3.755,0-5.3,2.575-5.3,4.436,0,6.186,7.7,3.92,7.7,7.575,0,1.744-1.721,2.644-3.112,2.644a3.882,3.882,0,0,1-3.313-1.7l-1.744,1.526a5.973,5.973,0,0,0,4.991,2.2c3,0,5.428-1.843,5.428-4.915C228.1,570.9,220.4,573.3,220.4,569.286ZM210.688,549.1h3.467v4.413a8.119,8.119,0,0,1-3.841.831,6.083,6.083,0,0,1-6.072-6.318c0-3.479,2.319-6.323,5.9-6.323a5.875,5.875,0,0,1,4.325,1.68l1.5-1.633c-1.216-1.28-2.96-2.06-5.828-2.06a8.338,8.338,0,0,0,.221,16.673,12.556,12.556,0,0,0,5.914-1.459v-7.82h-5.586Zm31.894,16.152H230.394v2.013h5.033V581.12h2.125V567.265h5.029Zm-38.7-50.323-3.445,12.687h-.043l-3.686-12.687h-2.431l-3.686,12.687h-.043L187.1,514.93h-2.212l4.571,15.867h2.23l3.778-12.954h.04l3.8,12.954h2.227l4.545-15.867Zm2.232,59.088h7.418V572h-7.418v-4.733h7.97v-2.013H203.991V581.12h10.488V579.1h-8.367Zm63.946-6.753h5.033V581.12h2.12V567.265h5.032v-2.013H270.058Zm-6.758-2.013h-2.118V581.12h8.657V579.1H263.3Zm-13.916,0L242.5,581.12h2.473l1.546-3.923h7.439l1.569,3.923h2.471l-6.688-15.868Zm-2.121,10.066,2.962-7.286h.043l2.916,7.286Zm18.77-35.23H253.847v2.018h5.034v13.852H261V542.107h5.032Zm17.1-20.72c0-2-1.019-4.439-5.013-4.439h-5.5V530.8h2.118V523.8H277.1l3.971,6.992h2.654l-4.441-7.237A4.234,4.234,0,0,0,283.135,519.368Zm-8.395,2.553v-5.11h2.784c1.678,0,3.354.405,3.354,2.557s-1.676,2.553-3.354,2.553Zm18.769-148.544a5.749,5.749,0,0,0,1.779,1.225,5.482,5.482,0,0,0,4.358,0,5.745,5.745,0,0,0,1.779-1.225,5.833,5.833,0,0,0,1.208-1.807,5.727,5.727,0,0,0,0-4.424,5.823,5.823,0,0,0-1.208-1.807,5.732,5.732,0,0,0-1.779-1.225,5.482,5.482,0,0,0-4.358,0,5.735,5.735,0,0,0-1.779,1.225,5.83,5.83,0,0,0-1.206,1.807,5.71,5.71,0,0,0,0,4.424A5.839,5.839,0,0,0,293.509,373.378Zm-.294-5.841a4.707,4.707,0,0,1,.988-1.492,4.646,4.646,0,0,1,1.47-1,4.577,4.577,0,0,1,3.589,0,4.7,4.7,0,0,1,0,8.635,4.568,4.568,0,0,1-3.589,0,4.62,4.62,0,0,1-1.47-1,4.7,4.7,0,0,1-.988-1.492,4.767,4.767,0,0,1,0-3.644Zm3.272,2.373h.859l1.6,2.665h1.237l-1.659-2.756a1.8,1.8,0,0,0,1.09-.5,1.739,1.739,0,0,0,.433-1.287,1.874,1.874,0,0,0-.55-1.454,2.472,2.472,0,0,0-1.712-.505h-2.473v6.507h1.176Zm0-2.832h.859c.182,0,.363.006.543.016a1.471,1.471,0,0,1,.49.108.844.844,0,0,1,0,1.561,1.574,1.574,0,0,1-.49.115c-.181.016-.361.023-.543.023h-.859Z" transform="translate(-175.87 -357.65)" fill="#fff"/></g></svg>