<svg xmlns="http://www.w3.org/2000/svg" width="42" height="42" viewBox="0 0 42 42">
  <g id="Gruppe_1851" data-name="Gruppe 1851" transform="translate(-0.375 -0.044)">
    <circle id="Ellipse_70" data-name="Ellipse 70" cx="21" cy="21" r="21" transform="translate(0.375 0.044)" fill="#f0f023"/>
    <path id="Pfad_86506" data-name="Pfad 86506" d="M288.434,406.192c.255.024.494.04.73.072a.98.98,0,0,1,.88.586c.252.676.5,1.355.728,2.038.324.958.6,1.931.956,2.877a1.428,1.428,0,0,1-.4,1.618c-.492.5-1.027.969-1.557,1.437a.864.864,0,0,0-.255,1.189,16.453,16.453,0,0,0,5.914,6.565c.678.422,1.391.8,2.108,1.163a.973.973,0,0,0,1.3-.2q1.069-.976,2.129-1.96a1.043,1.043,0,0,1,1.439-.2c1.641.9,3.261,1.825,4.9,2.73a.78.78,0,0,1,.457.956,15.252,15.252,0,0,1-.693,2.123,3.531,3.531,0,0,1-1.792,1.547,7.053,7.053,0,0,1-5.786.531c-1.338-.489-2.644-1.058-3.946-1.627a20.165,20.165,0,0,1-7.36-5.706,29.063,29.063,0,0,1-4.143-6.386,7.385,7.385,0,0,1-.457-5.833,6.484,6.484,0,0,1,2.821-3.325A2.643,2.643,0,0,1,288.434,406.192Z" transform="translate(-274.159 -397.058)" fill="none" stroke="#202020" stroke-linecap="round" stroke-linejoin="round" stroke-width="1.5"/>
  </g>
</svg>
