<svg id="Gruppe_1680" data-name="Gruppe 1680" xmlns="http://www.w3.org/2000/svg" width="113.611" height="46.753" viewBox="0 0 113.611 46.753">
  <path id="Pfad_245" data-name="Pfad 245" d="M1104.7,283.763a3.95,3.95,0,0,1-1.686-.432,54.546,54.546,0,0,0-24.786-6.347,26.174,26.174,0,0,0-2.826.142,93.505,93.505,0,0,0,6.212,8.466,2.075,2.075,0,0,1,.634,1.5,2.16,2.16,0,0,1-2.137,1.936c-.734,0-1.173-.29-1.855-1.089a96.309,96.309,0,0,1-7.35-10.14c-8.008,1.417-16.935,6.146-22.211,10.322a2.388,2.388,0,0,1-1.628.683,2.132,2.132,0,0,1-2.095-2.068c0-.637.236-1.118,1.06-1.8,8.05-6.7,20.556-12,31.175-12a51.2,51.2,0,0,1,12.2,1.545,61.026,61.026,0,0,1,8.931,3.082c-7.895-4.772-17.793-9.131-24.051-9.131-1.6,0-2.574.534-2.574,1.611a5.015,5.015,0,0,0,.879,2.331,28.963,28.963,0,0,0-4.15.716,8.019,8.019,0,0,1-1.107-3.843c0-3.053,1.989-4.93,5.993-4.93,9.071,0,24.317,8.455,31.925,14.631a3.782,3.782,0,0,1,1.729,2.614,2.275,2.275,0,0,1-2.284,2.2" transform="translate(-993.371 -264.321)" fill="#fff"/>
  <path id="Pfad_246" data-name="Pfad 246" d="M962.134,343.121a.8.8,0,0,1,.836-.881.791.791,0,0,1,.821.881v.919a3.069,3.069,0,0,1,2.3-1.8.746.746,0,0,1,.842.774c0,.431-.236.754-.965.957a2.619,2.619,0,0,0-2.176,2.889v4.7a.794.794,0,0,1-.825.881.8.8,0,0,1-.836-.881Z" transform="translate(-949.391 -305.69)" fill="#fff"/>
  <path id="Pfad_247" data-name="Pfad 247" d="M1041.451,343.121a.8.8,0,0,1,.835-.881.792.792,0,0,1,.822.881v.919a3.069,3.069,0,0,1,2.3-1.8.746.746,0,0,1,.842.774c0,.431-.236.754-.965.957a2.618,2.618,0,0,0-2.176,2.889v4.7a.832.832,0,1,1-1.66,0Z" transform="translate(-991.502 -305.69)" fill="#fff"/>
  <path id="Pfad_248" data-name="Pfad 248" d="M977.332,342.24c1.621,0,2.664.651,2.664,1.236a.679.679,0,0,1-.654.7c-.607,0-.894-.49-2.01-.49-1.883,0-2.85,1.685-2.85,3.655,0,2.133,1.09,3.654,2.85,3.654,1.229,0,1.5-.507,2.075-.507a.58.58,0,0,1,.6.642c0,.376-.31.681-.87.939a4.441,4.441,0,0,1-1.808.371c-2.822,0-4.518-2.119-4.518-5.1,0-2.918,1.71-5.1,4.518-5.1" transform="translate(-955.061 -305.69)" fill="#fff"/>
  <path id="Pfad_249" data-name="Pfad 249" d="M996.855,346.74a2.778,2.778,0,0,0-2.63-3.054,2.849,2.849,0,0,0-2.807,3.054Zm-5.437,1.237a2.88,2.88,0,0,0,2.944,3.017c1.951,0,2.413-1.093,3.117-1.093a.642.642,0,0,1,.673.686c0,.807-1.782,1.852-3.774,1.852a4.265,4.265,0,0,1-3.238-1.229,5.461,5.461,0,0,1-1.39-3.871c0-2.725,1.687-5.1,4.481-5.1,2.6,0,4.283,2.294,4.283,4.856,0,.581-.236.881-.919.881Z" transform="translate(-964.053 -305.69)" fill="#fff"/>
  <path id="Pfad_250" data-name="Pfad 250" d="M1013.806,347.739a.832.832,0,1,1-1.66,0V335.926a.832.832,0,1,1,1.66,0Z" transform="translate(-975.943 -301.87)" fill="#fff"/>
  <path id="Pfad_251" data-name="Pfad 251" d="M1023.588,350.991c1.618,0,2.727-1.411,2.727-3.654s-1.109-3.655-2.727-3.655-2.727,1.41-2.727,3.655,1.109,3.654,2.727,3.654m0,1.449c-2.639,0-4.394-2.1-4.394-5.1s1.755-5.1,4.394-5.1,4.395,2.1,4.395,5.1-1.755,5.1-4.395,5.1" transform="translate(-979.685 -305.687)" fill="#fff"/>
  <path id="Pfad_252" data-name="Pfad 252" d="M1064.221,339.108c-.926,3.18-2.445,8.407-2.57,8.837a.829.829,0,0,1-.881.676.808.808,0,0,1-.882-.676c-.129-.446-1.722-5.924-2.639-9.071-.151-.519-.291-1.134-.4-1.653-.063.508-.144,1.1-.233,1.658-.474,2.973-1.209,7.61-1.414,8.918-.09.577-.383.824-.865.824a.713.713,0,0,1-.74-.787,4.861,4.861,0,0,1,.092-.75s1.665-10.017,1.8-10.783c.142-.818.566-1.256,1.257-1.256a1.31,1.31,0,0,1,1.3,1.042c.121.424,1.463,5.128,2.315,8.1.157.548.315,1.195.434,1.778.114-.571.262-1.19.415-1.724.851-2.972,2.22-7.732,2.342-8.157a1.253,1.253,0,0,1,1.241-1.042c.649,0,1.125.423,1.257,1.256.122.768,1.8,10.783,1.8,10.783a4.926,4.926,0,0,1,.091.75.713.713,0,0,1-.74.787c-.482,0-.776-.247-.865-.824-.2-1.271-.9-5.684-1.373-8.661-.1-.607-.186-1.3-.26-1.928-.12.551-.283,1.227-.479,1.9" transform="translate(-997.952 -301.87)" fill="#fff"/>
  <path id="Pfad_253" data-name="Pfad 253" d="M1090.081,339.811a.832.832,0,1,0-1.661,0v8.438a.832.832,0,1,0,1.661,0Zm-.832-3.806a1.012,1.012,0,1,1-1.013,1.012,1.008,1.008,0,0,1,1.013-1.012" transform="translate(-1016.341 -302.38)" fill="#fff"/>
  <path id="Pfad_254" data-name="Pfad 254" d="M1096.707,336.886a.832.832,0,1,1,1.66,0v2.156h.675c.544,0,.825.266.825.716s-.281.719-.825.719h-.675v7.771a.832.832,0,1,1-1.66,0v-7.771h-.6c-.544,0-.825-.269-.825-.719s.281-.716.825-.716h.6Z" transform="translate(-1020.082 -302.38)" fill="#fff"/>
  <path id="Pfad_255" data-name="Pfad 255" d="M1107.859,336.886a.832.832,0,1,1,1.66,0v2.156h.675c.544,0,.825.266.825.716s-.281.719-.825.719h-.675v7.771a.832.832,0,1,1-1.66,0v-7.771h-.6c-.544,0-.825-.269-.825-.719s.282-.716.825-.716h.6Z" transform="translate(-1026.001 -302.38)" fill="#fff"/>
  <path id="Pfad_256" data-name="Pfad 256" d="M938.249,343.375l1.943-5.448c.14-.393.264-.766.362-1.077.1.336.232.72.358,1.074.5,1.413,1.254,3.519,1.944,5.451Zm7.678,3.727c-.347-.931-3.589-9.646-4.094-10.989-.253-.675-.64-1.068-1.28-1.068-.656,0-1,.393-1.26,1.068-.229.6-3.759,10.061-4.111,10.989a2.459,2.459,0,0,0-.214.8.743.743,0,0,0,.788.715A.83.83,0,0,0,936.6,348l1.129-3.161h5.655c.553,1.548,1,2.792,1.129,3.161a.814.814,0,0,0,.806.619.762.762,0,0,0,.836-.694,2.338,2.338,0,0,0-.225-.825" transform="translate(-934.967 -301.87)" fill="#fff"/>
  <path id="Pfad_257" data-name="Pfad 257" d="M1143.234,347.739a.832.832,0,1,1-1.66,0V335.926a.832.832,0,1,1,1.66,0Z" transform="translate(-1044.66 -301.87)" fill="#fff"/>
  <path id="Pfad_258" data-name="Pfad 258" d="M1122.283,350.993c-1.618,0-2.727-1.414-2.727-3.656s1.109-3.657,2.727-3.657,2.727,1.413,2.727,3.657-1.109,3.656-2.727,3.656m3.54-8.757a.8.8,0,0,0-.828.881v.746a3.247,3.247,0,0,0-2.841-1.631c-2.527,0-4.265,2.1-4.265,5.1s1.738,5.1,4.265,5.1a3.247,3.247,0,0,0,2.841-1.631v.746a.831.831,0,1,0,1.66,0v-8.438a.8.8,0,0,0-.832-.881" transform="translate(-1032.085 -305.687)" fill="#fff"/>
</svg>
