<svg id="Gruppe_1679" data-name="Gruppe 1679" xmlns="http://www.w3.org/2000/svg" width="110.411" height="54.367" viewBox="0 0 110.411 54.367">
  <path id="Pfad_285" data-name="Pfad 285" d="M85.771,42.159a18.051,18.051,0,0,0,1.349-1.9,10.324,10.324,0,0,0,.9-2.519c.578-2.431-.752-6.025-2.3-7.786-4.123-4.688-10.894-3.639-14.567.038,1.064.437,2.181.249,5.952-.612,3.473-.793,9.515,1.622,7.952,8.313.22.026-.282.765-.4,1-1.5,2.531-2.913,4.168-5.623,5.269-3.887,1.578-12.657.194-12.827-5.358l-.316-1.557a18.349,18.349,0,0,1,.18-2.657l.857-2.061c.333-1.11,1.39-2.147,2.025-3.136a17.139,17.139,0,0,1,4.112-3.459,10.172,10.172,0,0,1,4.193-.972,2.678,2.678,0,0,0,1.193-.686,1.832,1.832,0,0,0-.271-1.557c-3.319-1.329-8.021,1.527-10.169,3.856a19.229,19.229,0,0,0-2.481,3.069l-.722,1.328a11.784,11.784,0,0,0-1.4,3.572,4.867,4.867,0,0,0-.09,1.328c-.143,7.245,3.412,9.809,8.617,11.2a2.76,2.76,0,0,0,.581.147,36.982,36.982,0,0,0,.522,6.9c.032,0-.057.375.09.412v1.877l.225,2.335-.045.641c.035,1.493-.033,6.119.372,7.542,0,.293.721.32.721.32.482-.726.878-4.648,1.253-5.663-.126-.1.133-1.343.133-1.343l.048-.489c.031-.279-.094-.228.045-.779.281-1.1,0-2.309.226-3.388a22.378,22.378,0,0,0-.113-8.05c.839-.119,2.154-.18,2.526-.285A13.47,13.47,0,0,0,85.771,42.159Z" transform="translate(-34.634 -15.674)" fill="#fff"/>
  <path id="Pfad_286" data-name="Pfad 286" d="M96.534,73.685V73.64a3.47,3.47,0,0,0,3.044-3.5c0-3.438-2.956-4.022-4.927-4.022H89.307V81.8h5.344c1.927,0,5.388-.584,5.388-4.538A3.6,3.6,0,0,0,96.534,73.685Zm-4.161-5.1h1.183c1.4,0,2.956.134,2.956,1.955,0,1.618-1.6,1.91-2.89,1.91H92.373Zm1.445,10.74H92.373V74.786h1.445c1.533,0,3.154.315,3.154,2.359C96.973,78.965,95.242,79.325,93.819,79.325Z" transform="translate(-44.751 -32.754)" fill="#fff"/>
  <rect id="Rechteck_701" data-name="Rechteck 701" width="2.541" height="2.606" transform="translate(60.82 29.202)" fill="#fff"/>
  <rect id="Rechteck_702" data-name="Rechteck 702" width="2.541" height="2.606" transform="translate(65.332 29.202)" fill="#fff"/>
  <path id="Pfad_287" data-name="Pfad 287" d="M116.922,65.673c-4.862,0-7.49,3.258-7.49,8.066s2.585,8.156,7.49,8.156c4.841,0,7.491-3.415,7.491-8.156S121.719,65.673,116.922,65.673Zm0,13.751c-3.132,0-4.292-2.854-4.292-5.685,0-2.764,1.249-5.595,4.292-5.595s4.293,2.831,4.293,5.595C121.215,76.57,120.055,79.424,116.922,79.424Z" transform="translate(-52.576 -32.583)" fill="#fff"/>
  <path id="Pfad_288" data-name="Pfad 288" d="M139.953,70.445a2.145,2.145,0,0,1,2.409-2.18,7.751,7.751,0,0,1,3.11.674l.285-2.584a11.266,11.266,0,0,0-3.657-.562c-2.694,0-5.344,1.28-5.344,4.785,0,5.19,6.7,3.954,6.7,6.943,0,1.415-1.555,2.022-2.716,2.022a7.237,7.237,0,0,1-3.461-.966L137,81.408a13.149,13.149,0,0,0,3.92.606c3.088,0,5.738-1.3,5.738-4.74C146.654,72.017,139.953,73.163,139.953,70.445Z" transform="translate(-63.199 -32.63)" fill="#fff"/>
  <path id="Pfad_289" data-name="Pfad 289" d="M160,75.042h5.453V72.571H160V68.706h5.957V66.235h-9.023V81.917H166V79.445h-6Z" transform="translate(-71.045 -32.802)" fill="#fff"/>
  <path id="Pfad_290" data-name="Pfad 290" d="M186.123,66.113V77.842h-.044l-5.826-11.729h-3.767V81.8h2.934V70.068h.044L185.311,81.8h3.745V66.113Z" transform="translate(-78.646 -32.754)" fill="#fff"/>
  <path id="Pfad_291" data-name="Pfad 291" d="M46.083,57.906A88.226,88.226,0,0,0,24.49,60.569c1.307-1.284,2.63-2.609,3.935-3.969a77.044,77.044,0,0,0,9.224-11.286c1.1-1.7,2.007-3.5,2.92-5.273l1.448-2.81-3.115.25q-2.815.226-5.566.681a70.222,70.222,0,0,0,7.455-10.34,70.568,70.568,0,0,0,5.292-10.994v6.58a11.54,11.54,0,0,1,3.19-3.443q-.794-1.931-1.464-3.888l-1.557-4.544-1.689,4.495a68.713,68.713,0,0,1-5.212,10.857,68.544,68.544,0,0,1-7.27,10.084l-3.2,3.678,4.771-.787q2.682-.442,5.427-.664c-.888,1.724-1.772,3.472-2.836,5.128a75.428,75.428,0,0,1-9.016,11.022c-1.79,1.866-3.617,3.667-5.384,5.382L16.408,65.9c7.026-3.453,17.985-5.563,30.306-5.563l4.7,0V44.346a16.343,16.343,0,0,1-5.328-3.124Z" transform="translate(-16.408 -11.534)" fill="#fff"/>
</svg>
