<svg id="Gruppe_1678" data-name="Gruppe 1678" xmlns="http://www.w3.org/2000/svg" xmlns:xlink="http://www.w3.org/1999/xlink" width="123.152" height="55.894" viewBox="0 0 123.152 55.894">
  <defs>
    <clipPath id="clip-path">
      <path id="Pfad_104" data-name="Pfad 104" d="M0,29.409H123.152V-26.485H0Z" transform="translate(0 26.485)" fill="none"/>
    </clipPath>
  </defs>
  <g id="Gruppe_66" data-name="Gruppe 66" transform="translate(0 0)" clip-path="url(#clip-path)">
    <g id="Gruppe_62" data-name="Gruppe 62" transform="translate(36.703 11.323)">
      <path id="Pfad_100" data-name="Pfad 100" d="M5.444,5.444v-.23C7.715,4.524,8.635,2.627,8.635.472,8.635-3.5,6.05-4.9,1.679-4.9H-4.9V16.165H2.312c4.2,0,7.04-1.551,7.04-5.863A4.5,4.5,0,0,0,5.444,5.444m-6.5-7.272H1.679c2.127,0,3.047.891,3.047,2.847C4.727,3.29,3.75,4.151,2,4.151H-1.052ZM2.139,13.09H-1.052V6.938H2.2c1.925,0,3.161.806,3.161,3.047,0,2.157-.861,3.1-3.218,3.1" transform="translate(4.903 4.903)" fill="#fff"/>
    </g>
    <g id="Gruppe_63" data-name="Gruppe 63" transform="translate(53.402 11.036)">
      <path id="Pfad_101" data-name="Pfad 101" d="M4.537,0C-.809,0-4.086,3.3-4.086,10.894c0,7.787,3.191,10.75,8.623,10.75,5.346,0,8.623-3.1,8.623-10.807C13.16,3.018,9.942,0,4.537,0m0,18.4C1.576,18.4.082,17.073.082,10.837c0-6.268,1.437-7.589,4.425-7.589,2.933,0,4.485,1.321,4.485,7.589,0,6.293-1.522,7.559-4.455,7.559" transform="translate(4.086 0)" fill="#fff"/>
    </g>
    <g id="Gruppe_64" data-name="Gruppe 64" transform="translate(73.925 11.324)">
      <path id="Pfad_102" data-name="Pfad 102" d="M6.971,11.161a9.43,9.43,0,0,0,1.553-.144V7.539a3.594,3.594,0,0,1-.633.057c-.661,0-.8-.173-1.178-.861L4.126,1.85A5.668,5.668,0,0,0,7.777-3.9c0-4.4-2.7-6.15-6.812-6.15H-6.278V11.017H-2.4V2.825H.475L3.35,8.6c.95,1.925,1.783,2.558,3.621,2.558M.534-.164H-2.4V-6.976H.735c2.184,0,3.075,1.18,3.075,3.248C3.81-1.341,2.66-.164.534-.164" transform="translate(6.278 10.051)" fill="#fff"/>
    </g>
    <g id="Gruppe_65" data-name="Gruppe 65" transform="translate(91.428 11.322)">
      <path id="Pfad_103" data-name="Pfad 103" d="M1.967,2.995a9.988,9.988,0,0,0,.918,2.414L9.9,18.373H13.78V-2.7H10.186v12.3a21.459,21.459,0,0,0,.144,2.328h-.26a11.87,11.87,0,0,0-.948-2.328L2.454-2.7H-1.771v21.07H1.823V5.409a22.21,22.21,0,0,0-.116-2.414Z" transform="translate(1.771 2.697)" fill="#fff"/>
    </g>
  </g>
  <g id="Gruppe_67" data-name="Gruppe 67" transform="translate(36.692 37.664)">
    <path id="Pfad_105" data-name="Pfad 105" d="M0,.505H2.077V7.824H3.218V.505H5.306v-.96H0Z" transform="translate(0 0.455)" fill="#fff"/>
  </g>
  <g id="Gruppe_72" data-name="Gruppe 72" transform="translate(0 0)" clip-path="url(#clip-path)">
    <g id="Gruppe_68" data-name="Gruppe 68" transform="translate(45.797 36.252)">
      <path id="Pfad_106" data-name="Pfad 106" d="M.279.535A.487.487,0,0,0,.821.016a.479.479,0,0,0-.532-.5c-.338,0-.54.169-.54.5a.478.478,0,0,0,.53.519" transform="translate(0.251 0.482)" fill="#fff"/>
    </g>
    <g id="Gruppe_69" data-name="Gruppe 69" transform="translate(44.383 37.664)">
      <path id="Pfad_107" data-name="Pfad 107" d="M2.508,2.876c0,1.4-.532,1.944-1.842,1.944-1.365,0-1.794-.544-1.794-1.944V-2.59H-2.259V2.876C-2.259,5.1-1.164,5.8.655,5.8,2.517,5.8,3.6,4.978,3.6,2.876V-2.59h-1.1Z" transform="translate(2.259 2.59)" fill="#fff"/>
    </g>
    <g id="Gruppe_70" data-name="Gruppe 70" transform="translate(47.884 36.253)">
      <path id="Pfad_108" data-name="Pfad 108" d="M.565.261a.472.472,0,0,0-.532-.5.476.476,0,0,0-.542.5A.488.488,0,0,0,.033.78.479.479,0,0,0,.565.261" transform="translate(0.509 0.235)" fill="#fff"/>
    </g>
    <g id="Gruppe_71" data-name="Gruppe 71" transform="translate(53.542 37.664)">
      <path id="Pfad_109" data-name="Pfad 109" d="M2.532,3.631,1.346,1.373A2.19,2.19,0,0,0,2.905-.9C2.905-2.58,1.888-3.27.318-3.27h-2.6V5.009h1.106V1.643H.284L1.571,4.184c.338.667.631.872,1.23.872a3.616,3.616,0,0,0,.475-.046V3.992a1.061,1.061,0,0,1-.226.023c-.27,0-.35-.068-.519-.384M.183.763H-1.174v-3.13H.261a1.328,1.328,0,0,1,1.5,1.515A1.434,1.434,0,0,1,.183.763" transform="translate(2.28 3.27)" fill="#fff"/>
    </g>
  </g>
  <g id="Gruppe_73" data-name="Gruppe 73" transform="translate(61.907 37.664)">
    <path id="Pfad_111" data-name="Pfad 111" d="M.6,3.851V1.107H3.972V.158H.6V-2.508H4.141v-.96H-.536V4.811H4.255l-.091-.96Z" transform="translate(0.536 3.468)" fill="#fff"/>
  </g>
  <g id="Gruppe_74" data-name="Gruppe 74" transform="translate(69.755 37.665)">
    <path id="Pfad_112" data-name="Pfad 112" d="M.6,3.839v-7.3H-.541V4.822h4.63l-.112-.983Z" transform="translate(0.541 3.457)" fill="#fff"/>
  </g>
  <g id="Gruppe_75" data-name="Gruppe 75" transform="translate(76.45 37.664)">
    <path id="Pfad_113" data-name="Pfad 113" d="M.6,3.851V1.107H3.972V.158H.6V-2.508H4.141v-.96H-.536V4.811H4.255l-.091-.96Z" transform="translate(0.536 3.468)" fill="#fff"/>
  </g>
  <g id="Gruppe_77" data-name="Gruppe 77" transform="translate(0 0)" clip-path="url(#clip-path)">
    <g id="Gruppe_76" data-name="Gruppe 76" transform="translate(83.826 37.664)">
      <path id="Pfad_114" data-name="Pfad 114" d="M3.381,0,1.416,6.032a6.171,6.171,0,0,0-.228,1.083H1.121A5.494,5.494,0,0,0,.863,6.032L-1.125,0H-2.492l-.553,8.279h1.028l.35-5.728c.011-.236.011-.732.011-.96h.078a6.036,6.036,0,0,0,.228.96L.524,8.279H1.7L3.561,2.551a5.837,5.837,0,0,0,.228-.96h.068c0,.384.023.724.032.96l.329,5.728H5.3L4.757,0Z" transform="translate(3.045)" fill="#fff"/>
    </g>
  </g>
  <g id="Gruppe_78" data-name="Gruppe 78" transform="translate(95.05 37.664)">
    <path id="Pfad_116" data-name="Pfad 116" d="M.594,3.851V1.107H3.971V.158H.594V-2.508H4.14v-.96H-.535V4.811H4.253l-.091-.96Z" transform="translate(0.535 3.468)" fill="#fff"/>
  </g>
  <g id="Gruppe_80" data-name="Gruppe 80" transform="translate(0 0)" clip-path="url(#clip-path)">
    <g id="Gruppe_79" data-name="Gruppe 79" transform="translate(102.435 37.664)">
      <path id="Pfad_117" data-name="Pfad 117" d="M2.543,2.989c0,.27.013.574.034.869H2.509a5.015,5.015,0,0,0-.384-.869L-1.036-2.692H-2.29V5.587h1.051V-.229c0-.319-.023-.612-.046-.9h.068a5.187,5.187,0,0,0,.384.9L2.4,5.587H3.573V-2.692H2.543Z" transform="translate(2.29 2.692)" fill="#fff"/>
    </g>
  </g>
  <g id="Gruppe_81" data-name="Gruppe 81" transform="translate(110.632 37.664)">
    <path id="Pfad_119" data-name="Pfad 119" d="M0,.505H2.077V7.824H3.218V.505H5.308v-.96H0Z" transform="translate(0 0.455)" fill="#fff"/>
  </g>
  <g id="Gruppe_83" data-name="Gruppe 83" transform="translate(0 0)" clip-path="url(#clip-path)">
    <g id="Gruppe_82" data-name="Gruppe 82" transform="translate(-0.001 -0.001)">
      <path id="Pfad_120" data-name="Pfad 120" d="M14.029.005-11.889,3.812a.923.923,0,0,0-.745.876V51.222a.92.92,0,0,0,.745.874L14.029,55.88a.622.622,0,0,0,.743-.633V.64a.622.622,0,0,0-.743-.635M8.658,24.762c0,.893-2.343,2.819-2.343,3.17,0,.384,2.343,2.636,2.343,3.706V44.053a1.669,1.669,0,0,1-1.116,1.762l-18.778,4.7V5.4L7.571,10.16a1.68,1.68,0,0,1,1.085,1.72l0-.306Z" transform="translate(12.634 0.005)" fill="#fff"/>
    </g>
  </g>
  <g id="Gruppe_84" data-name="Gruppe 84" transform="translate(9.951 13.361)">
    <path id="Pfad_122" data-name="Pfad 122" d="M0,6.5l3.52.1V-5.227L0-5.856Z" transform="translate(0 5.856)" fill="#fff"/>
  </g>
  <g id="Gruppe_85" data-name="Gruppe 85" transform="translate(9.951 30.1)">
    <path id="Pfad_123" data-name="Pfad 123" d="M0,6.551l3.52-.625V-5.9L0-5.811Z" transform="translate(0 5.9)" fill="#fff"/>
  </g>
  <g id="Gruppe_86" data-name="Gruppe 86" transform="translate(110.772 11.324)">
    <path id="Pfad_124" data-name="Pfad 124" d="M0,0V21.068H12.377v-3.3H3.965V12.071h8.047V8.8H3.965V3.3h8.412V0Z" fill="#fff"/>
  </g>
  <g id="Gruppe_87" data-name="Gruppe 87" transform="translate(118.476 37.664)">
    <path id="Pfad_125" data-name="Pfad 125" d="M0,0V8.279H4.675v-.96H1.129V4.575H4.506v-.95H1.129V.96H4.675V0Z" fill="#fff"/>
  </g>
</svg>
