<svg xmlns="http://www.w3.org/2000/svg" width="113.823" height="18.432" viewBox="0 0 113.823 18.432">
  <path id="Pfad_86498" data-name="Pfad 86498" d="M97.919,58.527h12c3.046,0,4.037-.735,4.037-3.669V46.677c0-2.97-.992-3.671-4.037-3.671h-12c-3.046,0-4.037.7-4.037,3.671l0,8.181C93.882,57.792,94.836,58.527,97.919,58.527Zm-.258-12.66h12.512v9.69H97.661Zm28.289,12.66h3.778V45.8h7.523V43.005H118.465V45.8h7.485ZM23.462,60.413v1.024H137.183l0-1.024Zm19.741-9.7c0-4.81-3.192-7.711-9.317-7.711H23.428V58.529h9.5C39.755,58.529,43.2,55.962,43.2,50.716Zm-15.96,4.913V45.8h6.681c3.591,0,5.391,1.5,5.391,4.733,0,4.033-2.384,5.1-7.192,5.1Zm47.69-3.154H85.169c2.5,0,3.632-.847,3.632-3.01V46.017c0-2.2-1.136-3.012-3.632-3.012H71.193V58.526h3.74Zm0-6.786h8.623c1.136,0,1.725.22,1.725,1.243v1.616c0,1.028-.589,1.245-1.725,1.245H74.932Zm-9.189,9.94H52.72V51.813H60.2v-2.68H52.72V45.757H65.56V43.005H48.9V58.527H65.743Z" transform="translate(-23.428 -43.005)" fill="#fff"/>
</svg>
