<svg xmlns="http://www.w3.org/2000/svg" xmlns:xlink="http://www.w3.org/1999/xlink" width="113.583" height="50.366" viewBox="0 0 113.583 50.366">
  <defs>
    <clipPath id="clip-path">
      <path id="Pfad_55" data-name="Pfad 55" d="M0,23.658H113.583V-26.708H0Z" transform="translate(0 26.708)" fill="none"/>
    </clipPath>
  </defs>
  <g id="Gruppe_1675" data-name="Gruppe 1675" transform="translate(0)">
    <g id="Gruppe_19" data-name="Gruppe 19" transform="translate(0 0)" clip-path="url(#clip-path)">
      <g id="Gruppe_9" data-name="Gruppe 9" transform="translate(51.808 0.008)">
        <path id="Pfad_45" data-name="Pfad 45" d="M12.759,1.638V-.448a1.393,1.393,0,0,0-1.392-1.4L-5.658-1.849A1.394,1.394,0,0,0-7.049-.455V1.632A1.392,1.392,0,0,0-5.658,3.026H-.992A1.4,1.4,0,0,1,.4,4.419V6.507A1.394,1.394,0,0,1-.994,7.9l-12.012,0A1.39,1.39,0,0,0-14.4,9.288L-14.4,21.25a1.394,1.394,0,0,0,1.394,1.394l7.19,0a1.391,1.391,0,0,0,1.392-1.392l0-2.218a1.394,1.394,0,0,0-1.392-1.394h-2.21a1.394,1.394,0,0,1-1.394-1.394l0-2.086A1.393,1.393,0,0,1-8.026,12.77l7.03,0A1.391,1.391,0,0,1,.4,14.165l0,11.963A1.4,1.4,0,0,1-1,27.52l-4.664,0a1.394,1.394,0,0,0-1.394,1.394V31a1.392,1.392,0,0,0,1.392,1.394l17.025.006a1.393,1.393,0,0,0,1.392-1.392l0-2.088a1.394,1.394,0,0,0-1.394-1.394h-4.7A1.4,1.4,0,0,1,5.265,26.13L5.272,4.421A1.391,1.391,0,0,1,6.666,3.03h4.7a1.392,1.392,0,0,0,1.394-1.392" transform="translate(14.404 1.849)" fill="#fff"/>
      </g>
      <g id="Gruppe_10" data-name="Gruppe 10" transform="translate(34.612 0.001)">
        <path id="Pfad_46" data-name="Pfad 46" d="M9.309,1.637V-.449A1.391,1.391,0,0,0,7.917-1.842L-9.106-1.848A1.391,1.391,0,0,0-10.5-.456l0,2.088A1.394,1.394,0,0,0-9.108,3.025l4.664,0A1.394,1.394,0,0,1-3.051,4.418l-.008,21.709a1.392,1.392,0,0,1-1.394,1.392H-9.115a1.392,1.392,0,0,0-1.394,1.392V31a1.392,1.392,0,0,0,1.392,1.394l17.023,0A1.391,1.391,0,0,0,9.3,31V28.917a1.392,1.392,0,0,0-1.392-1.394h-4.7A1.394,1.394,0,0,1,1.815,26.13L1.82,4.422a1.4,1.4,0,0,1,1.4-1.394l4.7,0A1.394,1.394,0,0,0,9.309,1.637" transform="translate(10.509 1.848)" fill="#fff"/>
      </g>
      <g id="Gruppe_11" data-name="Gruppe 11" transform="translate(0 41.168)">
        <path id="Pfad_47" data-name="Pfad 47" d="M1.813,4.248A3.468,3.468,0,0,1-1.066,3,4.766,4.766,0,0,1-2.047-.21a4.481,4.481,0,0,1,1.658-3.9A3.392,3.392,0,0,1,1.789-4.8a3.915,3.915,0,0,1,2.623.93l-.739.916a2.888,2.888,0,0,0-1.859-.675C.182-3.625-.416-2.2-.416-.134a4.081,4.081,0,0,0,.649,2.6A2.206,2.206,0,0,0,1.9,3.128a2.429,2.429,0,0,0,1.173-.281V.554H1.57l-.2-1.2h3.2V3.509a5.359,5.359,0,0,1-2.751.739" transform="translate(2.047 4.796)" fill="#fff"/>
      </g>
      <g id="Gruppe_12" data-name="Gruppe 12" transform="translate(8.037 43.499)">
        <path id="Pfad_48" data-name="Pfad 48" d="M.725,1.765v.1c0,.892.332,1.835,1.592,1.835a2.371,2.371,0,0,0,1.6-.637l.549.854a3.49,3.49,0,0,1-2.32.852C.33,4.771-.818,3.459-.818,1.4a3.513,3.513,0,0,1,.8-2.521A2.45,2.45,0,0,1,1.96-1.993a2.485,2.485,0,0,1,1.771.664c.562.509.841,1.3.841,2.8v.292ZM1.96-.935C1.17-.935.736-.311.736.734H3.12c0-1.045-.458-1.669-1.16-1.669" transform="translate(0.818 1.993)" fill="#fff"/>
      </g>
      <g id="Gruppe_13" data-name="Gruppe 13" transform="translate(14.801 40.71)">
        <path id="Pfad_49" data-name="Pfad 49" d="M1.424,4.475A1.951,1.951,0,0,1-.143,3.738a1.608,1.608,0,0,1-.179.6H-1.608A3.6,3.6,0,0,0-1.442,2.9V-3.179a5.132,5.132,0,0,0-.166-1.556l1.452-.317a6.852,6.852,0,0,1,.1,1.286v1.5a3.555,3.555,0,0,1-.038.611l.051.013a2.042,2.042,0,0,1,1.527-.624C3.029-2.263,4-1,4,1.011,4,3.074,2.927,4.475,1.424,4.475M1.181-1.079A1.542,1.542,0,0,0-.041-.43V2.717a1.666,1.666,0,0,0,1.2.56c.879,0,1.262-.636,1.262-2.254,0-1.16-.23-2.1-1.237-2.1" transform="translate(1.608 5.052)" fill="#fff"/>
      </g>
      <g id="Gruppe_14" data-name="Gruppe 14" transform="translate(21.68 43.474)">
        <path id="Pfad_50" data-name="Pfad 50" d="M1.52.658a1.054,1.054,0,0,0-.4-.089,1.271,1.271,0,0,0-1.209.954V5.88h-1.4V1.333A5.1,5.1,0,0,0-1.716-.4L-.43-.73A2.241,2.241,0,0,1-.187.289,2.018,2.018,0,0,1,1.458-.743a1.055,1.055,0,0,1,.494.1Z" transform="translate(1.716 0.743)" fill="#fff"/>
      </g>
      <g id="Gruppe_15" data-name="Gruppe 15" transform="translate(26.216 41.18)">
        <path id="Pfad_51" data-name="Pfad 51" d="M2.046,4.285a1.426,1.426,0,0,1-.56-.8,2.337,2.337,0,0,1-1.835.79,2.037,2.037,0,0,1-1.6-.637A2.243,2.243,0,0,1-2.31,2.106V-2.263l1.375-.255V1.8c0,.8.115,1.388.943,1.388a1.564,1.564,0,0,0,1.262-.841V-2.263l1.348-.255V2.335a1.643,1.643,0,0,0,.4,1.286ZM-1.1-3.053a.879.879,0,0,1-.854-.892A.872.872,0,0,1-1.1-4.837a.87.87,0,0,1,.852.892.878.878,0,0,1-.852.892m2.661,0a.878.878,0,0,1-.852-.892.873.873,0,0,1,.866-.892.88.88,0,0,1,.854.892.89.89,0,0,1-.867.892" transform="translate(2.31 4.837)" fill="#fff"/>
      </g>
      <g id="Gruppe_16" data-name="Gruppe 16" transform="translate(32.723 40.71)">
        <path id="Pfad_52" data-name="Pfad 52" d="M2.035,4.409a1.543,1.543,0,0,1-.115-.5,2.112,2.112,0,0,1-1.58.637C-1.3,4.549-2.3,3.263-2.3,1.251s1.12-3.4,2.676-3.4a1.822,1.822,0,0,1,1.388.586s-.038-.5-.038-1.058V-4.978l1.388.215v6.93a7.225,7.225,0,0,0,.2,2.242ZM1.729-.509a1.532,1.532,0,0,0-1.173-.52c-.89,0-1.3.713-1.3,2.267,0,1.428.281,2.14,1.339,2.14a1.336,1.336,0,0,0,1.133-.613Z" transform="translate(2.297 4.978)" fill="#fff"/>
      </g>
      <g id="Gruppe_17" data-name="Gruppe 17" transform="translate(39.717 43.499)">
        <path id="Pfad_53" data-name="Pfad 53" d="M.724,1.765v.1c0,.892.332,1.835,1.592,1.835a2.379,2.379,0,0,0,1.607-.637l.547.854a3.493,3.493,0,0,1-2.318.852C.328,4.771-.817,3.459-.817,1.4a3.513,3.513,0,0,1,.8-2.521,2.45,2.45,0,0,1,1.974-.867,2.485,2.485,0,0,1,1.771.664c.56.509.839,1.3.839,2.8v.292Zm1.235-2.7C1.169-.935.737-.311.737.734H3.119c0-1.045-.458-1.669-1.16-1.669" transform="translate(0.817 1.993)" fill="#fff"/>
      </g>
      <g id="Gruppe_18" data-name="Gruppe 18" transform="translate(46.404 43.474)">
        <path id="Pfad_54" data-name="Pfad 54" d="M1.52.658A1.053,1.053,0,0,0,1.126.57a1.271,1.271,0,0,0-1.211.954V5.88h-1.4V1.333A5.1,5.1,0,0,0-1.716-.4L-.43-.73A2.241,2.241,0,0,1-.187.289,2.018,2.018,0,0,1,1.458-.743a1.068,1.068,0,0,1,.5.1Z" transform="translate(1.716 0.743)" fill="#fff"/>
      </g>
    </g>
    <g id="Gruppe_20" data-name="Gruppe 20" transform="translate(54.035 41.282)">
      <path id="Pfad_56" data-name="Pfad 56" d="M2.094,0V3.542H-.914V0h-1.45V8.816h1.45V4.739H2.094V8.816H3.572V0Z" transform="translate(2.364)" fill="#fff"/>
    </g>
    <g id="Gruppe_29" data-name="Gruppe 29" transform="translate(0 0)" clip-path="url(#clip-path)">
      <g id="Gruppe_21" data-name="Gruppe 21" transform="translate(61.639 43.499)">
        <path id="Pfad_57" data-name="Pfad 57" d="M.724,1.765v.1c0,.892.332,1.835,1.592,1.835a2.379,2.379,0,0,0,1.607-.637l.547.854a3.489,3.489,0,0,1-2.318.852C.328,4.771-.817,3.459-.817,1.4a3.513,3.513,0,0,1,.8-2.521,2.454,2.454,0,0,1,1.976-.867,2.483,2.483,0,0,1,1.769.664c.56.509.841,1.3.841,2.8v.292Zm1.237-2.7C1.171-.935.737-.311.737.734H3.121c0-1.045-.46-1.669-1.16-1.669" transform="translate(0.817 1.993)" fill="#fff"/>
      </g>
      <g id="Gruppe_22" data-name="Gruppe 22" transform="translate(68.352 40.824)">
        <path id="Pfad_58" data-name="Pfad 58" d="M0,.443A.93.93,0,0,1,.93-.5a.927.927,0,0,1,.916.943.938.938,0,0,1-.943.93A.913.913,0,0,1,0,.443M.2,8.774V2.431l1.412-.255v6.6Z" transform="translate(0 0.5)" fill="#fff"/>
      </g>
      <g id="Gruppe_23" data-name="Gruppe 23" transform="translate(71.688 43.475)">
        <path id="Pfad_59" data-name="Pfad 59" d="M1.771,3.111V-1.17c0-.879-.2-1.12-.737-1.12a2.333,2.333,0,0,0-1.414.726V3.111H-1.758V-1.628A3.791,3.791,0,0,0-2-3.156l1.273-.356A1.858,1.858,0,0,1-.5-2.6a3.009,3.009,0,0,1,1.974-.892A1.59,1.59,0,0,1,3.161-1.7V3.111Z" transform="translate(1.999 3.512)" fill="#fff"/>
      </g>
      <g id="Gruppe_24" data-name="Gruppe 24" transform="translate(78.312 43.499)">
        <path id="Pfad_60" data-name="Pfad 60" d="M.724,1.765v.1c0,.892.332,1.835,1.592,1.835a2.379,2.379,0,0,0,1.607-.637l.547.854a3.489,3.489,0,0,1-2.318.852C.328,4.771-.817,3.459-.817,1.4a3.513,3.513,0,0,1,.8-2.521,2.454,2.454,0,0,1,1.976-.867,2.483,2.483,0,0,1,1.769.664c.56.509.841,1.3.841,2.8v.292Zm1.237-2.7C1.171-.935.737-.311.737.734H3.119c0-1.045-.458-1.669-1.158-1.669" transform="translate(0.817 1.993)" fill="#fff"/>
      </g>
      <g id="Gruppe_25" data-name="Gruppe 25" transform="translate(85.013 43.486)">
        <path id="Pfad_61" data-name="Pfad 61" d="M3.278,3.106V-1.352c0-.752-.166-.969-.662-.969a2.159,2.159,0,0,0-1.363.739V3.106H-.084v-4.42c0-.752-.166-.994-.7-.994a2.049,2.049,0,0,0-1.326.637V3.106H-3.473V-1.518A4.091,4.091,0,0,0-3.7-3.15l1.273-.356a1.778,1.778,0,0,1,.23.828A2.428,2.428,0,0,1-.491-3.493a1.674,1.674,0,0,1,1.541.943,2.652,2.652,0,0,1,1.925-.943c1.056,0,1.68.547,1.68,1.886V3.106Z" transform="translate(3.701 3.506)" fill="#fff"/>
      </g>
      <g id="Gruppe_26" data-name="Gruppe 26" transform="translate(94.858 43.486)">
        <path id="Pfad_62" data-name="Pfad 62" d="M2.25,3.231a1.512,1.512,0,0,1-.879-.866A2.192,2.192,0,0,1-.4,3.154c-1.477,0-2.14-.815-2.14-1.937,0-1.49,1.12-2.24,3.185-2.24h.432v-.345C1.077-2.105.951-2.5.187-2.5a3.9,3.9,0,0,0-1.924.739l-.624-1.007A4.837,4.837,0,0,1,.377-3.648,1.9,1.9,0,0,1,2.339-2.579,4.432,4.432,0,0,1,2.44-1L2.416.848c-.013.867.064,1.147.56,1.492ZM.8-.082c-1.4,0-1.822.409-1.822,1.224a.873.873,0,0,0,.89.994,1.456,1.456,0,0,0,1.16-.675L1.052-.069S.9-.082.8-.082" transform="translate(2.54 3.648)" fill="#fff"/>
      </g>
      <g id="Gruppe_27" data-name="Gruppe 27" transform="translate(101.584 43.475)">
        <path id="Pfad_63" data-name="Pfad 63" d="M1.771,3.111V-1.17c0-.879-.2-1.12-.737-1.12a2.333,2.333,0,0,0-1.414.726V3.111H-1.758V-1.628A3.791,3.791,0,0,0-2-3.156l1.273-.356A1.879,1.879,0,0,1-.5-2.6a3,3,0,0,1,1.974-.892A1.588,1.588,0,0,1,3.159-1.7V3.111Z" transform="translate(1.999 3.512)" fill="#fff"/>
      </g>
      <g id="Gruppe_28" data-name="Gruppe 28" transform="translate(108.425 43.475)">
        <path id="Pfad_64" data-name="Pfad 64" d="M1.771,3.111V-1.17c0-.879-.2-1.12-.737-1.12a2.333,2.333,0,0,0-1.414.726V3.111H-1.758V-1.628A3.824,3.824,0,0,0-2-3.156l1.273-.356A1.879,1.879,0,0,1-.5-2.6a3,3,0,0,1,1.974-.892A1.588,1.588,0,0,1,3.159-1.7V3.111Z" transform="translate(1.999 3.512)" fill="#fff"/>
      </g>
    </g>
  </g>
</svg>
