<svg xmlns="http://www.w3.org/2000/svg" width="126.281" height="37.725" viewBox="0 0 126.281 37.725">
  <path id="Pfad_86766" data-name="Pfad 86766" d="M2754.78,1413.2h1.492l.062-6.161h-1.493Zm-22.406,0h1.638v-1.638h-1.638Zm-3.289,0h1.638v-1.638h-1.638Zm7.468-18.086,3.245,0,.128-.42c1.2-3.932,2.861-8.956,4.348-12.731.053,2.954.14,7.661.14,7.661l.042,1.594c.031.936.062,1.906.037,3.294l-.011.6h3.031l-.027-.615c-.073-1.708-.1-3.353-.123-4.892l-.222-12.479h-3.922l-.152.361c-.663,1.577-3.254,8.778-4.825,13.773-.63-1.917-1.636-4.539-2.618-7.1-1.058-2.755-2.056-5.357-2.4-6.6l-.118-.435h-4.023l.057.642a27.984,27.984,0,0,1,.116,3.121s-.236,8.708-.236,8.708c-.04.943-.085,2.553-.138,4.912l-.014.6h3.1l-.014-1.84c-.005-.682-.009-1.2-.009-1.685,0-.635.007-1.2.028-1.956,0,0,.042-4.519.068-7.516a130.156,130.156,0,0,1,4.406,12.513Zm14.949,11.753a3.012,3.012,0,0,0-2.812,3.277c0,1.931,1.125,3.227,2.69,3.227a3.366,3.366,0,0,0,2.507-1.211l-.857-.782a2.051,2.051,0,0,1-1.431.794c-1.027,0-1.406-1.027-1.418-1.87h3.864C2754.046,1408.15,2753.24,1406.867,2751.5,1406.867Zm-1.247,2.384a1.446,1.446,0,0,1,1.247-1.333c.783,0,1.088.672,1.126,1.333Zm54.518-27.71c-4.174,0-5.689,3.726-5.689,6.231a7.772,7.772,0,0,0,2.332,5.99,7.125,7.125,0,0,0,4.8,1.753,16.522,16.522,0,0,0,2.39-.224l.631-.09v-2.617l-.681.106a14.2,14.2,0,0,1-2.174.229c-3.261,0-4.121-2.145-4.391-4.038h8.192l.022-.59.01-.286.012-.351a7.228,7.228,0,0,0-1.132-3.878A4.968,4.968,0,0,0,2804.775,1381.541Zm-2.76,4.862a2.781,2.781,0,0,1,2.783-2.266,2.525,2.525,0,0,1,2.492,2.266Zm-56.318,24.975h-.025l-1.137-4.339h-1.577l-1.21,4.339h-.025l-1.124-4.511-1.467.367,1.882,5.966h1.5l1.2-4.511h.024l1.088,4.511h1.516l1.981-5.88-1.382-.453Zm48.959-23.95-.328-.231-.769-.53c-.885-.6-1.721-1.161-1.721-1.656,0-.788,1.3-.873,1.865-.873a10.9,10.9,0,0,1,1.926.227l.695.124v-2.6l-.471-.1a11.2,11.2,0,0,0-2.244-.248c-1.8,0-4.484.918-4.484,3.446,0,2.091,1.772,3.236,3.336,4.248l.13.086c1.228.8,2.387,1.55,2.387,2.443,0,.429-.4,1.156-1.889,1.156a7.577,7.577,0,0,1-2.212-.462l-1.335-.407.007.8v1.976l.424.124a11.371,11.371,0,0,0,3.164.567c2.1,0,4.556-1,4.556-3.8C2797.692,1389.559,2796.009,1388.376,2794.656,1387.427Zm24.035-5.887a5.3,5.3,0,0,0-3.752,1.609c.012-.192.021-.384.021-.563,0-.087,0-.172-.006-.254l-.035-.615-2.883.288.093.615a52.9,52.9,0,0,1,.461,5.45v2.536c0,1.13-.017,2.468-.051,3.978l-.014.6,2.882-.065-.054-.609a21.811,21.811,0,0,1-.068-2.92l.018-.979v-3.122a3.18,3.18,0,0,1,3.4-3.347l.58-.009v-2.586ZM2693,1389.423a14.173,14.173,0,1,0,27.8,0v-13.776H2693Zm.788-13.043h26.225v13.043a13.167,13.167,0,1,1-26.225,0Zm123.851,36.819h1.64v-1.638h-1.64Zm-17.886-8.46h-1.344v1.345h1.344Zm15.98,7.507c-.366,0-.5-.246-.5-.648,0-.453,0-1.015.012-1.626l.036-1.809h1.369v-1.124l-1.369.023.049-2.2h-1.492l-.049,2.2-.832-.023v1.124h.832l-.037,1.882c-.012.538-.012,1.2-.012,1.48,0,1.308.647,1.846,1.675,1.846a1.873,1.873,0,0,0,.929-.245l.5-.268-.428-.905A1.222,1.222,0,0,1,2815.732,1412.246Zm-5.038.953h1.492l.073-9.17h-1.49Zm-103.794-8.482a15.761,15.761,0,0,0,12.289-15.294v-12.29h-24.577v12.29a15.762,15.762,0,0,0,12.289,15.294Zm-9.269-19.069,9.269,3.846-3.834-9.271,3.842,3.844,3.838-3.844-3.845,9.271,9.27-3.837-3.844,3.844,3.844,3.838-9.27-3.844,3.835,9.269-3.842-3.844-3.837,3.844,3.844-9.269-9.269,3.834,3.843-3.84Zm38.031,27.551h1.638v-1.638h-1.638Zm19.178-7.018h1.493l.012-1.443h-1.492Zm26.508.685a2.655,2.655,0,0,0-1.993.917h-.025l.025-3.754h-1.491l-.062,9.17h1.492l.025-4.181a2.379,2.379,0,0,1,1.356-.807c.624,0,.807.354.807.831s-.011,1.663-.024,2.616l-.012,1.541h1.491l.037-3.093c0-.391.013-.77.013-1.381C2782.988,1407.771,2782.645,1406.867,2781.349,1406.867Zm5.144-11.666v-2.617l-.682.106a14.191,14.191,0,0,1-2.175.229c-3.258,0-4.12-2.145-4.39-4.038h8.191l.022-.59.012-.284.013-.353a7.228,7.228,0,0,0-1.132-3.878,4.97,4.97,0,0,0-4.32-2.235c-4.174,0-5.69,3.726-5.69,6.231a7.77,7.77,0,0,0,2.332,5.99,7.128,7.128,0,0,0,4.8,1.753,16.574,16.574,0,0,0,2.387-.223Zm-4.437-11.064a2.526,2.526,0,0,1,2.492,2.266h-5.276A2.782,2.782,0,0,1,2782.056,1384.137Zm25.522,22.73a2.654,2.654,0,0,0-1.993.917h-.025l.025-3.754h-1.492l-.062,9.17h1.492l.024-4.181a2.379,2.379,0,0,1,1.357-.807c.624,0,.808.354.808.831s-.013,1.663-.026,2.616l-.012,1.541h1.492l.038-3.093c0-.391.011-.77.011-1.381C2809.215,1407.771,2808.872,1406.867,2807.577,1406.867Zm-31.338,5.415c-.16,0-.331-.244-.331-.587,0-.257.012-.489.025-.77l.049-1.773c.012-.159.012-.293.012-.514a1.67,1.67,0,0,0-1.768-1.772c-.66,0-1.344.147-2.689,1.247l.709.795c.93-.722,1.3-.844,1.6-.844.415,0,.709.135.709.82v.4c-2.666.44-3.3,1.3-3.3,2.286a1.714,1.714,0,0,0,1.847,1.8,2.107,2.107,0,0,0,1.576-.818,1.043,1.043,0,0,0,1.071.818,2.274,2.274,0,0,0,1.283-.5l-.355-.746A1.219,1.219,0,0,1,2776.239,1412.282Zm-1.719-.612a1.6,1.6,0,0,1-1.063.576.7.7,0,0,1-.782-.721c0-.624.452-.965,1.871-1.284Zm22.095-3.3v-1.33h-4.323v1.193h2.684l-2.6,3.78v1.169h4.4v-1.195h-2.7Zm5.852,3.916c-.159,0-.329-.244-.329-.587,0-.257.01-.489.023-.77l.049-1.773c.012-.159.012-.293.012-.514a1.668,1.668,0,0,0-1.761-1.772c-.66,0-1.344.147-2.689,1.247l.71.795c.928-.722,1.3-.844,1.6-.844.415,0,.708.135.708.82v.4c-2.665.44-3.3,1.3-3.3,2.286a1.714,1.714,0,0,0,1.847,1.8,2.1,2.1,0,0,0,1.576-.818,1.034,1.034,0,0,0,1.065.818,2.274,2.274,0,0,0,1.283-.5l-.355-.746A1.229,1.229,0,0,1,2802.467,1412.282Zm-1.713-.612a1.6,1.6,0,0,1-1.063.576.7.7,0,0,1-.783-.721c0-.624.453-.965,1.871-1.284Zm-13.941-4.8a3.013,3.013,0,0,0-2.812,3.277c0,1.931,1.125,3.227,2.69,3.227a3.367,3.367,0,0,0,2.507-1.211l-.857-.782a2.046,2.046,0,0,1-1.43.794c-1.027,0-1.406-1.027-1.418-1.87h3.864C2789.357,1408.15,2788.549,1406.867,2786.813,1406.867Zm-1.247,2.384a1.448,1.448,0,0,1,1.247-1.333c.783,0,1.089.672,1.127,1.333Zm16.362-4.512h-1.344v1.345h1.344Zm-41.944-15.265v-2.787c0-2.209-.6-5.145-5.806-5.145a16.278,16.278,0,0,0-2.69.291l-.491.082v2.772l.962-.217a10.087,10.087,0,0,1,2.194-.332c2.469,0,2.981.928,3.088,1.8-.281-.028-.565-.052-.846-.052-4.1,0-6.744,2.02-6.744,5.148a4.29,4.29,0,0,0,4.385,4.484,1.861,1.861,0,1,1,3.464-.883l.09.481h2.658l-.083-.661A40.9,40.9,0,0,1,2759.984,1389.474Zm-2.713,0a3.222,3.222,0,0,1-2.928,3.445,1.842,1.842,0,0,1-1.864-1.935c0-1.717,1.367-2.74,3.658-2.74a5.975,5.975,0,0,1,1.134.12Zm.663,23.725h1.492l.073-9.17h-1.49Zm15.584-7.115v-1.345h-1.345v1.345Zm-10.674-11.577-.019.607h3.108l-.085-.665a29.882,29.882,0,0,1-.231-3.843V1380.29c0-1.561.034-2.712.116-3.974l.048-.67-3.031.375.024.521c.095,1.919.128,4.048.128,5.4v8.664C2762.9,1391.87,2762.883,1393.183,2762.844,1394.507Zm11.5,11.577h1.352v-1.345h-1.352Zm.761-10.569v-2.6h-.59c-.916,0-1.4-.1-1.663-.343-.3-.273-.437-.863-.437-1.852v-6.3h2.28l.265-2.655-.815.069c-.592.052-1.031.088-1.723.1.016-.651.057-1.316.131-2.086l.073-.771-.762.134-2.21.388.081.566a4.106,4.106,0,0,1,.03.558c0,.334-.019.713-.036,1.042,0,.06-.007.117-.009.175h-1.993l-.267,2.661.823-.077c.521-.05.888-.084,1.417-.1v6.485c0,1.878.495,3.141,1.513,3.86a5.658,5.658,0,0,0,3.3.742Zm-6.392,15.53h-.026l-3.815-6.29h-1.529l-.074,8.427h1.552l-.124-6.227.025-.025,3.717,6.252h1.666l.074-8.427h-1.566Z" transform="translate(-2693 -1375.646)" fill="#fff"/>
</svg>
