<svg id="Gruppe_1683" data-name="Gruppe 1683" xmlns="http://www.w3.org/2000/svg" xmlns:xlink="http://www.w3.org/1999/xlink" width="143.841" height="35.36" viewBox="0 0 143.841 35.36">
  <defs>
    <clipPath id="clip-path">
      <path id="Pfad_139" data-name="Pfad 139" d="M0,16.91H143.841V-18.45H0Z" transform="translate(0 18.45)" fill="none"/>
    </clipPath>
  </defs>
  <g id="Gruppe_102" data-name="Gruppe 102" transform="translate(0 0)" clip-path="url(#clip-path)">
    <g id="Gruppe_89" data-name="Gruppe 89" transform="translate(42.056 19.007)">
      <path id="Pfad_126" data-name="Pfad 126" d="M.8,1.285h-1.2V3.163H-.876V-1.4H.8A1.291,1.291,0,0,1,2.2-.06,1.3,1.3,0,0,1,.8,1.285M.759-.965H-.395V.85H.759a.859.859,0,0,0,.956-.91.854.854,0,0,0-.956-.9" transform="translate(0.876 1.402)" fill="#fff"/>
    </g>
    <g id="Gruppe_90" data-name="Gruppe 90" transform="translate(46.225 20.418)">
      <path id="Pfad_127" data-name="Pfad 127" d="M.958,1.509V1.156a1.137,1.137,0,0,1-.882.391,1.1,1.1,0,0,1-.8-.3A1.188,1.188,0,0,1-1.045.366V-1.646h.456V.3c0,.558.291.839.761.839A.742.742,0,0,0,.952.3V-1.646h.456V1.509Z" transform="translate(1.045 1.646)" fill="#fff"/>
    </g>
    <g id="Gruppe_91" data-name="Gruppe 91" transform="translate(50.268 20.379)">
      <path id="Pfad_128" data-name="Pfad 128" d="M.833.307A.648.648,0,0,0,.295.077.766.766,0,0,0-.453.922V2.86H-.909V-.295h.456V.09A1.04,1.04,0,0,1,.421-.335a.954.954,0,0,1,.747.3Z" transform="translate(0.909 0.335)" fill="#fff"/>
    </g>
    <g id="Gruppe_92" data-name="Gruppe 92" transform="translate(53.28 20.379)">
      <path id="Pfad_129" data-name="Pfad 129" d="M.218.831c0,.694.324,1.09.918,1.09a1.017,1.017,0,0,0,.818-.36l.31.276a1.415,1.415,0,0,1-1.14.489C.3,2.326-.238,1.826-.238.709c0-1.02.489-1.616,1.28-1.616s1.28.59,1.28,1.527V.831ZM1.77-.041a.775.775,0,0,0-.728-.473.773.773,0,0,0-.728.473,1.332,1.332,0,0,0-.1.525H1.866a1.332,1.332,0,0,0-.1-.525" transform="translate(0.238 0.907)" fill="#fff"/>
    </g>
    <g id="Gruppe_93" data-name="Gruppe 93" transform="translate(59.483 19.007)">
      <path id="Pfad_130" data-name="Pfad 130" d="M1.24,2.183.213.157H-.87V2.183h-.483V-2.382H.378A1.227,1.227,0,0,1,1.715-1.113,1.183,1.183,0,0,1,.732.113L1.8,2.183ZM.334-1.945H-.87V-.272h1.2a.8.8,0,0,0,.9-.834.8.8,0,0,0-.9-.839" transform="translate(1.353 2.382)" fill="#fff"/>
    </g>
    <g id="Gruppe_94" data-name="Gruppe 94" transform="translate(63.654 20.379)">
      <path id="Pfad_131" data-name="Pfad 131" d="M1.037,1.374a1.219,1.219,0,0,1-.893.36,1.221,1.221,0,0,1-.9-.36A1.707,1.707,0,0,1-1.131.117,1.7,1.7,0,0,1-.752-1.139a1.221,1.221,0,0,1,.9-.36,1.219,1.219,0,0,1,.893.36A1.7,1.7,0,0,1,1.416.117a1.707,1.707,0,0,1-.379,1.257M.713-.857a.8.8,0,0,0-.569-.232.782.782,0,0,0-.565.232A1.385,1.385,0,0,0-.675.117a1.39,1.39,0,0,0,.253.976.782.782,0,0,0,.565.232.8.8,0,0,0,.569-.232A1.388,1.388,0,0,0,.96.117,1.383,1.383,0,0,0,.713-.857" transform="translate(1.131 1.499)" fill="#fff"/>
    </g>
    <g id="Gruppe_95" data-name="Gruppe 95" transform="translate(67.525 19.007)">
      <path id="Pfad_132" data-name="Pfad 132" d="M.955,2.183V.234C.955-.318.664-.6.194-.6a.741.741,0,0,0-.78.834V2.183h-.456V-2.382h.456V-.625A1.1,1.1,0,0,1,.29-1.01,1.061,1.061,0,0,1,1.411.157V2.183Z" transform="translate(1.042 2.382)" fill="#fff"/>
    </g>
    <g id="Gruppe_96" data-name="Gruppe 96" transform="translate(71.29 20.38)">
      <path id="Pfad_133" data-name="Pfad 133" d="M.612,1.545a1.707,1.707,0,0,1-1.28-.456l.3-.307A1.265,1.265,0,0,0,.6,1.147c.514,0,.832-.186.832-.556C1.436.315,1.277.16.917.127L.4.083C-.206.031-.528-.243-.528-.762c0-.577.481-.924,1.146-.924a1.747,1.747,0,0,1,1.123.339l-.3.3A1.322,1.322,0,0,0,.612-1.3c-.456,0-.7.2-.7.519,0,.268.153.429.546.462l.5.044c.544.052.918.263.918.853,0,.609-.512.962-1.267.962" transform="translate(0.668 1.686)" fill="#fff"/>
    </g>
    <g id="Gruppe_97" data-name="Gruppe 97" transform="translate(74.957 19.45)">
      <path id="Pfad_134" data-name="Pfad 134" d="M.57,1.971a.769.769,0,0,1-.8-.845V-.811H-.622v-.353h.393v-.987H.227v.987H.894v.353H.227V1.113c0,.287.134.462.425.462H.894v.4Z" transform="translate(0.622 2.151)" fill="#fff"/>
    </g>
    <g id="Gruppe_98" data-name="Gruppe 98" transform="translate(77.624 20.379)">
      <path id="Pfad_135" data-name="Pfad 135" d="M1.037,1.374a1.216,1.216,0,0,1-.893.36,1.221,1.221,0,0,1-.9-.36A1.707,1.707,0,0,1-1.131.117,1.7,1.7,0,0,1-.752-1.139a1.221,1.221,0,0,1,.9-.36,1.216,1.216,0,0,1,.893.36A1.7,1.7,0,0,1,1.416.117a1.707,1.707,0,0,1-.379,1.257M.713-.857a.8.8,0,0,0-.569-.232.782.782,0,0,0-.565.232A1.385,1.385,0,0,0-.675.117a1.39,1.39,0,0,0,.253.976.782.782,0,0,0,.565.232.8.8,0,0,0,.569-.232A1.388,1.388,0,0,0,.96.117,1.383,1.383,0,0,0,.713-.857" transform="translate(1.131 1.499)" fill="#fff"/>
    </g>
    <g id="Gruppe_99" data-name="Gruppe 99" transform="translate(81.29 18.996)">
      <path id="Pfad_136" data-name="Pfad 136" d="M.409.858V3.641H-.047V.858h-.4V.505h.4v-.6A.764.764,0,0,1,.744-.936h.33v.4H.827c-.291,0-.418.172-.418.462V.505h.665V.858Z" transform="translate(0.446 0.936)" fill="#fff"/>
    </g>
    <g id="Gruppe_100" data-name="Gruppe 100" transform="translate(83.946 18.996)">
      <path id="Pfad_137" data-name="Pfad 137" d="M.41.858V3.641H-.046V.858h-.4V.505h.4v-.6A.764.764,0,0,1,.745-.936h.33v.4H.827C.536-.539.41-.367.41-.077V.505h.665V.858Z" transform="translate(0.447 0.936)" fill="#fff"/>
    </g>
    <g id="Gruppe_101" data-name="Gruppe 101" transform="translate(86.529 20.379)">
      <path id="Pfad_138" data-name="Pfad 138" d="M.218.831c0,.694.324,1.09.918,1.09a1.017,1.017,0,0,0,.818-.36l.31.276a1.415,1.415,0,0,1-1.14.489C.3,2.326-.238,1.826-.238.709c0-1.02.489-1.616,1.28-1.616s1.28.59,1.28,1.527V.831ZM1.77-.041a.773.773,0,0,0-.728-.473.775.775,0,0,0-.728.473,1.332,1.332,0,0,0-.1.525H1.866a1.332,1.332,0,0,0-.1-.525" transform="translate(0.238 0.907)" fill="#fff"/>
    </g>
  </g>
  <g id="Gruppe_103" data-name="Gruppe 103" transform="translate(38.997 0.48)">
    <path id="Pfad_140" data-name="Pfad 140" d="M0,0V3.181H3.068V14.452H6.783V3.181H9.851V0Z" fill="#fff"/>
  </g>
  <g id="Gruppe_104" data-name="Gruppe 104" transform="translate(50.25 0.48)">
    <path id="Pfad_141" data-name="Pfad 141" d="M4.34,0V5.579h-5.36V0H-4.735V14.452h3.714V8.53H4.34v5.922H8.054V0Z" transform="translate(4.735)" fill="#fff"/>
  </g>
  <g id="Gruppe_105" data-name="Gruppe 105" transform="translate(65.52 0.48)">
    <path id="Pfad_142" data-name="Pfad 142" d="M0,0V14.452H8.128V11.271H3.714V8.78H7.9V5.6H3.714V3.181H8.128V0Z" fill="#fff"/>
  </g>
  <g id="Gruppe_108" data-name="Gruppe 108" transform="translate(0 0)" clip-path="url(#clip-path)">
    <g id="Gruppe_106" data-name="Gruppe 106" transform="translate(75.278)">
      <path id="Pfad_143" data-name="Pfad 143" d="M3.778,0A7.954,7.954,0,0,1,9.272,2.072,6.928,6.928,0,0,1,11.68,7.438a7.784,7.784,0,0,1-2.227,5.74,7.672,7.672,0,0,1-5.675,2.233A7.665,7.665,0,0,1-1.9,13.178a7.776,7.776,0,0,1-2.227-5.74A6.914,6.914,0,0,1-1.717,2.089,7.97,7.97,0,0,1,3.778,0m0,3.643A3.948,3.948,0,0,0,.936,4.793,3.593,3.593,0,0,0-.258,7.455,4.281,4.281,0,0,0,.916,10.543a3.813,3.813,0,0,0,2.861,1.227,3.81,3.81,0,0,0,2.861-1.227A4.289,4.289,0,0,0,7.814,7.455,3.593,3.593,0,0,0,6.62,4.793a3.948,3.948,0,0,0-2.842-1.15" transform="translate(4.122 0)" fill="#fff"/>
    </g>
    <g id="Gruppe_107" data-name="Gruppe 107" transform="translate(96.477 0.096)">
      <path id="Pfad_144" data-name="Pfad 144" d="M4.766.568,3.288,3.481a4.455,4.455,0,0,0-1.165-.7,3.443,3.443,0,0,0-1.3-.259,2.012,2.012,0,0,0-1.09.316,1,1,0,0,0-.5.891A1.072,1.072,0,0,0-.2,4.652,5.616,5.616,0,0,0,.881,5.11L1.83,5.4A5.9,5.9,0,0,1,4.331,6.7,3.524,3.524,0,0,1,5.352,9.346a6.59,6.59,0,0,1-.3,2.11,3.88,3.88,0,0,1-1.165,1.782,5.281,5.281,0,0,1-1.865,1.025,7.285,7.285,0,0,1-2.2.335,8.311,8.311,0,0,1-2.614-.412A8.915,8.915,0,0,1-5.2,12.951l1.591-3.028a7.008,7.008,0,0,0,1.518,1.054,3.99,3.99,0,0,0,1.78.441,2.09,2.09,0,0,0,1.23-.345,1.289,1.289,0,0,0,.569-1.112A1.3,1.3,0,0,0,.674,8.83,8.758,8.758,0,0,0-.767,8.313a7.837,7.837,0,0,1-2.8-1.227,3.587,3.587,0,0,1-1.06-2.858A4.675,4.675,0,0,1-3.259.712,4.9,4.9,0,0,1,.295-.62a9.1,9.1,0,0,1,2.292.307A8.878,8.878,0,0,1,4.766.568" transform="translate(5.2 0.62)" fill="#fff"/>
    </g>
  </g>
  <g id="Gruppe_109" data-name="Gruppe 109" transform="translate(107.75 0.48)">
    <path id="Pfad_146" data-name="Pfad 146" d="M0,0V3.181H3.07V14.452H6.784V3.181H9.853V0Z" fill="#fff"/>
  </g>
  <g id="Gruppe_110" data-name="Gruppe 110" transform="translate(119.003 0.48)">
    <path id="Pfad_147" data-name="Pfad 147" d="M0,0V14.452H8.13V11.271H3.716V8.78H7.9V5.6H3.716V3.181H8.13V0Z" fill="#fff"/>
  </g>
  <path id="Pfad_148" data-name="Pfad 148" d="M67.561-3.748h3.714V-18.2H67.561Z" transform="translate(61.92 18.679)" fill="#fff"/>
  <g id="Gruppe_111" data-name="Gruppe 111" transform="translate(135.675 0.48)">
    <path id="Pfad_149" data-name="Pfad 149" d="M0,0V14.452H8.166V11.271H3.714V0Z" fill="#fff"/>
  </g>
  <g id="Gruppe_115" data-name="Gruppe 115" transform="translate(0 0)" clip-path="url(#clip-path)">
    <g id="Gruppe_112" data-name="Gruppe 112" transform="translate(0 0.131)">
      <path id="Pfad_150" data-name="Pfad 150" d="M0,0V35.229H4.082c.186-.644.387-1.349.567-1.982L2.626,33.3l-.46-2.058c.5-.816,1.1-1.8,1.5-2.449l-2.315-.035.044-2.095c.97-.838,2.269-1.945,2.47-2.116a.835.835,0,0,0,.287-.4L1.2,23.974l.5-1.987c1.1-.376,2.566-.882,2.783-.958.312-.107.422-.261.433-.447,0-.2-.082-.245-.332-.364s-2.445-.937-2.445-.937l.943-1.744c1.121.119,2.618.276,2.856.3a.929.929,0,0,0,.1.006.365.365,0,0,0,.408-.263c.057-.192-.013-.282-.222-.514S4.151,15,4.151,15l1.328-1.355,2.9.464c-.416-.893-1.238-2.61-1.238-2.61l1.639-.811,2.484.475c-.142-.995-.284-1.98-.284-1.98l1.826-.1,2.444.517c.086-.629.149-1.1.149-1.1l6.269,1.378,1.811.73a.042.042,0,0,1,0,.015l2.7.569,1.535,1.593c-.138.422-.284.868-.427,1.311l2.854.516.931,2.336c-.6.811-1.278,1.71-1.849,2.472l3.546.46.065,2.739c-1.823,1.148-4.05,2.555-4.368,2.758a1.1,1.1,0,0,0-.462.46l5.483.322-.855,2.641-.107,0-.011.036-4.929.77c-.481.079-.652.243-.661.47.006.234.142.309.54.5s4.37,1.813,4.37,1.813l-1.671,2.018-4.55.082c.211.213.46.462.726.728h8.352V0Z" fill="#fff"/>
    </g>
    <g id="Gruppe_113" data-name="Gruppe 113" transform="translate(1.767 9.257)">
      <path id="Pfad_151" data-name="Pfad 151" d="M8.321,12.483c-.381-.4-.682-.724-.8-.853-.008-.01-.019-.021-.025-.029-.287-.328-.562-.642-.416-1.121a.766.766,0,0,1,.78-.535,1.908,1.908,0,0,1,.489.077c.32.094,2.514.723,4.429,1.273l1.163-1.483c-1.1-.47-3.557-1.524-3.885-1.69-.416-.213-.77-.395-.778-.916V7.193l0-.013c.015-.333.2-.763,1.02-.908l4.705-.8L15.646,3.5c-1.167.05-3.609.149-4.113.149l-.059,0c-.458-.011-.891-.023-1.069-.552-.136-.458.082-.878.646-1.261.31-.211,2.415-1.623,4.214-2.829L15.23-2.972c-1.131.575-3.457,1.756-3.789,1.9a1.753,1.753,0,0,1-.673.2.666.666,0,0,1-.537-.268c-.406-.54.056-1.2.207-1.416s.774-1.1,1.579-2.231l1.46-2.054-.159-.427-.435-1.169-.289.324c-.918,1.027-2.363,2.639-2.6,2.875-.316.31-.521.51-.828.51a.663.663,0,0,1-.328-.088c-.585-.312-.337-1.113-.257-1.378.077-.228.4-1.251.8-2.53l.738-2.348L9.2-12.087c-.14.314-.32.723-.514,1.156-.215.483-.443.993-.646,1.445-.282.631-.514,1.144-.585,1.284-.2.41-.387.8-.849.8H6.594l-.033,0c-.452-.029-.684-.416-.692-1.148,0-.038,0-.1,0-.174,0-.261.01-.73.017-1.313.011-.8.027-1.823.038-2.781,0-.065,0-.128,0-.194s0-.113,0-.171L4.9-13.62c-.021.165-.048.358-.077.569-.107.772-.245,1.78-.349,2.5-.061.435-.109.767-.128.88-.086.473-.153.845-.573,1a.639.639,0,0,1-.232.044.654.654,0,0,1-.188-.027c-.393-.123-.54-.609-.594-.786-.015-.056-.048-.165-.09-.31-.1-.332-.257-.87-.441-1.487-.015-.056-.033-.111-.05-.167-.09-.3-.184-.625-.278-.947-.086-.289-.172-.581-.255-.861L.62-13.152c.061.414.151,1.043.238,1.658.121.851.236,1.675.251,1.867.04.427.071.769-.243,1.05A.633.633,0,0,1,.431-8.4.989.989,0,0,1-.3-8.875l-.981-1.355c-.117-.163-.238-.328-.36-.5l-.563-.778-.933.462c.314.659.918,1.926,1.177,2.491.052.117.092.205.109.251A1.015,1.015,0,0,1-1.8-7.29a.688.688,0,0,1-.6.353,1.073,1.073,0,0,1-.54-.174c-.138-.082-.767-.468-1.474-.9l-.884-.54-.786.8c.556.542,1.631,1.6,1.79,1.782a.883.883,0,0,1,.31.924.784.784,0,0,1-.146.274.829.829,0,0,1-.673.3c-.044,0-.092,0-.142-.006-.2-.019-1.257-.13-2.187-.228l-.389-.04L-8.088-3.7c.688.259,1.826.688,2.018.78a.786.786,0,0,1,.571.747v.031a.921.921,0,0,1-.723.832c-.192.069-1.372.475-2.562.884L-9.079.74c.707-.061,1.79-.155,2-.155h.046a.83.83,0,0,1,.569.167.651.651,0,0,1,.2.347.858.858,0,0,1,0,.328,1.2,1.2,0,0,1-.439.7c-.182.153-1.355,1.154-2.327,1.989l-.023,1.1,0,.052c.682-.378,1.66-.918,1.842-1a1.119,1.119,0,0,1,.471-.142.574.574,0,0,1,.514.318,1.162,1.162,0,0,1-.165,1.138c-.046.071-.149.24-.291.471-.1.161-.217.353-.347.567-.353.579-.8,1.307-1.194,1.951l.236,1.048c.036-.044.077-.092.115-.136C-7.3,8.818-6.566,7.96-6.423,7.81a.908.908,0,0,1,.634-.381.561.561,0,0,1,.391.165,1.151,1.151,0,0,1,.136,1.184c-.046.172-.253.9-.485,1.713-.2.692-.416,1.447-.571,1.991h.878c.322-.744.636-1.466.713-1.621a2.621,2.621,0,0,1,.232-.4.556.556,0,0,1,.468-.251.626.626,0,0,1,.2.034.613.613,0,0,1,.272.194,1.488,1.488,0,0,1,.224.947c0,.13-.011.544-.025,1.1Z" transform="translate(9.079 13.62)" fill="#fff"/>
    </g>
    <g id="Gruppe_114" data-name="Gruppe 114" transform="translate(5.405 33.085)">
      <path id="Pfad_152" data-name="Pfad 152" d="M.772.016a.617.617,0,0,0-.2-.034A.55.55,0,0,0,.1.233a2.692,2.692,0,0,0-.234.4c-.077.157-.391.88-.713,1.623H1.243c.013-.558.023-.97.025-1.1A1.5,1.5,0,0,0,1.046.21.6.6,0,0,0,.772.016" transform="translate(0.842 0.018)" fill="#fff"/>
    </g>
  </g>
</svg>
