<svg id="Gruppe_1682" data-name="Gruppe 1682" xmlns="http://www.w3.org/2000/svg" width="124.041" height="25.997" viewBox="0 0 124.041 25.997">
  <path id="Porta" d="M143.46,112.381V110.87H130.506v1.511h.888v4.834H118.668V115.7h-12.05v1.511h.906v7.735h23.869v.967H107.524v10.635H118.7v-4.834a2.417,2.417,0,0,1,4.835,0v4.834h3.021v-4.834a2.417,2.417,0,0,1,4.834,0v4.834h11.179V121.807h-23.9v-.967h23.9v-8.46Z" transform="translate(-106.618 -110.87)" fill="#fff"/>
  <g id="Gruppe_136" data-name="Gruppe 136" transform="translate(43.052 6.325)">
    <path id="T" d="M353.177,147.1v4.012h5.132v15.363h4.852V151.108h5.163V147.1Z" transform="translate(-353.177 -147.096)" fill="#fff"/>
    <path id="R" d="M463.9,153.435a2.258,2.258,0,0,1-2.519,2.394h-1.859v-4.821h1.859a2.238,2.238,0,0,1,2.519,2.426m6.531,13.186v-3.48a3.381,3.381,0,0,1-.56.031,2,2,0,0,1-1.679-1.061l-2.675-3.95a5.308,5.308,0,0,0,3.266-5.007c0-3.639-2.395-5.971-6.531-5.971h-7.582v19.375h4.851v-7.4h1.331l3.11,4.82c1.555,2.395,2.892,2.862,4.945,2.862a6.01,6.01,0,0,0,1.524-.218" transform="translate(-436.949 -147.169)" fill="#fff"/>
    <path id="I" d="M567.691,147.1H561.5v3.663h1.341v12.049H561.5v3.663h7.534v-3.663h-1.341V150.759h1.341V147.1Z" transform="translate(-525.123 -147.096)" fill="#fff"/>
    <path id="E" d="M628.247,147.1v19.375h14.108v-4.012H633.1v-4.136h8.137v-3.639H633.1v-3.577h9.257V147.1Z" transform="translate(-580.216 -147.096)" fill="#fff"/>
    <path id="R-2" data-name="R" d="M741.938,163.173a2,2,0,0,1-1.679-1.061l-2.674-3.95a5.309,5.309,0,0,0,3.265-5.007c0-3.639-2.395-5.971-6.531-5.971h-7.582v19.375h4.852v-7.4h1.331l3.11,4.82c1.555,2.395,2.892,2.862,4.945,2.862a6.01,6.01,0,0,0,1.524-.218v-3.48A3.382,3.382,0,0,1,741.938,163.173Zm-8.49-7.343h-1.859v-4.821h1.859a2.413,2.413,0,1,1,0,4.821Z" transform="translate(-661.509 -147.169)" fill="#fff"/>
  </g>
</svg>
