<svg xmlns="http://www.w3.org/2000/svg" xmlns:xlink="http://www.w3.org/1999/xlink" width="143.01" height="80.804" viewBox="0 0 143.01 80.804">
  <defs>
    <clipPath id="clip-path">
      <path id="Pfad_72" data-name="Pfad 72" d="M0,45.95H143.01v-80.8H0Z" transform="translate(0 34.854)" fill="#fff"/>
    </clipPath>
  </defs>
  <g id="Gruppe_1676" data-name="Gruppe 1676" transform="translate(0)">
    <g id="Gruppe_36" data-name="Gruppe 36" transform="translate(0 0)" clip-path="url(#clip-path)">
      <g id="Gruppe_31" data-name="Gruppe 31" transform="translate(53.748 31.341)">
        <path id="Pfad_67" data-name="Pfad 67" d="M.053,0A103.851,103.851,0,0,0,18.062,1.56,103.911,103.911,0,0,0,36.078,0l.088.471A85.614,85.614,0,0,1,18.062,2.4,85.462,85.462,0,0,1-.04.471Z" transform="translate(0.04)" fill="#fff"/>
      </g>
      <g id="Gruppe_32" data-name="Gruppe 32" transform="translate(46.19 33.687)">
        <path id="Pfad_68" data-name="Pfad 68" d="M29.183.268A121.365,121.365,0,0,1,3.524,2.992,121.251,121.251,0,0,1-22.136.268l.093-.471A138.659,138.659,0,0,0,3.524,2.152,138.771,138.771,0,0,0,29.09-.2Z" transform="translate(22.136 0.203)" fill="#fff"/>
      </g>
      <g id="Gruppe_33" data-name="Gruppe 33" transform="translate(61.014 29.087)">
        <path id="Pfad_69" data-name="Pfad 69" d="M12.323.265A56.377,56.377,0,0,1,1.489,1.306,56.312,56.312,0,0,1-9.347.265L-9.268-.2A86.711,86.711,0,0,0,1.489.467,86.879,86.879,0,0,0,12.246-.2Z" transform="translate(9.347 0.201)" fill="#fff"/>
      </g>
      <g id="Gruppe_34" data-name="Gruppe 34" transform="translate(67.044 13.36)">
        <path id="Pfad_70" data-name="Pfad 70" d="M0,2.5C0-.21,1.736-1.893,3.876-1.893a3.791,3.791,0,0,1,3.807,3.9H7.451A3.106,3.106,0,0,0,4.335-1.184c-1.757,0-3.181,1.347-3.181,3.691v9.22H0Z" transform="translate(0 1.893)" fill="#fff"/>
      </g>
      <g id="Gruppe_35" data-name="Gruppe 35" transform="translate(66.875 11.921)">
        <path id="Pfad_71" data-name="Pfad 71" d="M.1,1.6A4.6,4.6,0,0,1,3.965-.489c2.536,0,4.581,1.825,4.581,5.1v9.232H9.7V4.53C9.7.9,7.285-1.217,4.489-1.217A5.171,5.171,0,0,0-.078,1.519Z" transform="translate(0.078 1.217)" fill="#fff"/>
      </g>
    </g>
    <g id="Gruppe_37" data-name="Gruppe 37" transform="translate(71.728 63.889)">
      <path id="Pfad_73" data-name="Pfad 73" d="M.24,1.827,2.111-.621V1.827Zm-.422.519H2.111V3.793h.823V2.347h.828V1.827H2.934V-1.386h-.5L-.182,1.973Z" transform="translate(0.182 1.386)" fill="#fff"/>
    </g>
    <g id="Gruppe_41" data-name="Gruppe 41" transform="translate(0 0)" clip-path="url(#clip-path)">
      <g id="Gruppe_38" data-name="Gruppe 38" transform="translate(78.241 63.954)">
        <path id="Pfad_74" data-name="Pfad 74" d="M1.259,1.216C.77.965-.079.75-.079.126c0-.57.466-.846,1.064-.846.57,0,.969.294.969.846a1.162,1.162,0,0,1-.7,1.09m-.849.447c.668.3,1.553.519,1.553,1.34A1.064,1.064,0,0,1,.8,4.051,1,1,0,0,1-.3,3a1.5,1.5,0,0,1,.709-1.34m1-.38C1.934,1.074,2.557.745,2.557.168c0-.721-.909-1.09-1.593-1.09C.1-.922-.841-.5-.841.335c0,.672.457.978,1.066,1.254-.617.325-1.18.661-1.18,1.377,0,.895.842,1.287,1.637,1.287,1.115,0,2.056-.485,2.056-1.451,0-.809-.563-1.206-1.324-1.519" transform="translate(0.955 0.922)" fill="#fff"/>
      </g>
      <g id="Gruppe_39" data-name="Gruppe 39" transform="translate(61.404 63.956)">
        <path id="Pfad_75" data-name="Pfad 75" d="M1.264,2.907V2.761C.817,2.761.7,2.71.7,2.388V-2.2H.557a2.957,2.957,0,0,1-1.516.777v.16c.466.042.693.042.765.165a.913.913,0,0,1,.07.459V2.388c0,.322-.181.373-.614.373v.146Z" transform="translate(0.959 2.205)" fill="#fff"/>
      </g>
      <g id="Gruppe_40" data-name="Gruppe 40" transform="translate(66.267 63.79)">
        <path id="Pfad_76" data-name="Pfad 76" d="M1.913.136H.072A5.467,5.467,0,0,1-.568.11C-.742.106-.8.087-.8-.1H-.932l-.519,1.426h.183l.077-.206c.058-.167.155-.276.322-.276H1.347L-.283,4.1C-.582,4.7-.8,5.132-.8,5.162c0,.153.225.148.341.148a.494.494,0,0,0,.538-.35L1.913.333Z" transform="translate(1.451 0.103)" fill="#fff"/>
      </g>
    </g>
    <path id="Pfad_78" data-name="Pfad 78" d="M7.016-9.065H55.994v-.471H7.016Z" transform="translate(9.25 68.232)" fill="#fff"/>
    <path id="Pfad_79" data-name="Pfad 79" d="M30.445-9.065h58v-.471h-58Z" transform="translate(40.137 68.232)" fill="#fff"/>
    <g id="Gruppe_56" data-name="Gruppe 56" transform="translate(0 0)" clip-path="url(#clip-path)">
      <g id="Gruppe_42" data-name="Gruppe 42" transform="translate(57.181 48.611)">
        <path id="Pfad_80" data-name="Pfad 80" d="M4.331,2.079A3.536,3.536,0,0,0,.522-1.577,3.578,3.578,0,0,0-3.285,2.079,3.58,3.58,0,0,0,.522,5.735,3.686,3.686,0,0,0,4.331,2.079m-1.616,0c0,1.794-.747,3.264-2.193,3.264-1.486,0-2.184-1.451-2.184-3.264S-.906-1.178.522-1.178c1.553,0,2.193,1.444,2.193,3.257" transform="translate(3.285 1.577)" fill="#fff"/>
      </g>
      <g id="Gruppe_43" data-name="Gruppe 43" transform="translate(91.135 44.605)">
        <path id="Pfad_81" data-name="Pfad 81" d="M1.743,3.208h.744c1.966,0,3.716.165,3.716,2.541C6.2,7.4,5.227,8.313,3.2,8.313c-.869,0-1.454-.146-1.454-.978Zm0-5.186h.58C4.935-1.978,5.547-.93,5.547.336c0,1.771-1.377,2.42-2.97,2.42H1.743ZM-1.322,8.7c1.345,0,2.731.067,4.127.067a8.219,8.219,0,0,0,3.573-.612,2.7,2.7,0,0,0,1.672-2.5A2.987,2.987,0,0,0,5.162,2.731,2.5,2.5,0,0,0,7.281.19,2.376,2.376,0,0,0,5.916-1.934a7.664,7.664,0,0,0-3.355-.5c-1.331.019-2.608.019-3.883.03v.336c.7.116,1.308-.042,1.308.779V7.671c0,.661-.707.661-1.308.693Z" transform="translate(1.322 2.434)" fill="#fff"/>
      </g>
      <g id="Gruppe_44" data-name="Gruppe 44" transform="translate(102.539 48.611)">
        <path id="Pfad_82" data-name="Pfad 82" d="M4.331,2.079A3.536,3.536,0,0,0,.519-1.577a3.575,3.575,0,0,0-3.8,3.656,3.577,3.577,0,0,0,3.8,3.656A3.688,3.688,0,0,0,4.331,2.079m-1.621,0c0,1.794-.747,3.264-2.191,3.264-1.484,0-2.186-1.451-2.186-3.264S-.909-1.178.519-1.178C2.075-1.178,2.71.266,2.71,2.079" transform="translate(3.285 1.577)" fill="#fff"/>
      </g>
      <g id="Gruppe_45" data-name="Gruppe 45" transform="translate(15.116 44.639)">
        <path id="Pfad_83" data-name="Pfad 83" d="M0,.191A1.688,1.688,0,0,1,1.124.608a6.119,6.119,0,0,1,.9,1.792l3.607,8.78h.582L9.651,2.266c.406-1.046.816-2.075,2-2.075V-.145H7.913V.191a1.22,1.22,0,0,1,1.238.5c.158.287.116.9-.306,2.045L6.6,8.818H6.561L3.777,1.837a2.37,2.37,0,0,1-.162-1c.111-.5.723-.649,1.312-.649V-.145H0Z" transform="translate(0 0.145)" fill="#fff"/>
      </g>
      <g id="Gruppe_46" data-name="Gruppe 46" transform="translate(31.997 44.498)">
        <path id="Pfad_84" data-name="Pfad 84" d="M1.474,0C.7.22-.272.545-1.1.742V.93a1.2,1.2,0,0,1,.763.246A1.311,1.311,0,0,1-.093,2.186v7.866c0,.846-.232.846-1.025.883v.306H2.448v-.306c-.742-.037-.974-.037-.974-.883Z" transform="translate(1.118)" fill="#fff"/>
      </g>
      <g id="Gruppe_47" data-name="Gruppe 47" transform="translate(37.086 44.498)">
        <path id="Pfad_85" data-name="Pfad 85" d="M1.477,0C.7.22-.271.545-1.1.742V.93a1.193,1.193,0,0,1,.76.246c.25.22.25.605.25,1.011v7.866c0,.846-.232.846-1.029.883v.306H2.45v-.306c-.744-.037-.974-.037-.974-.883Z" transform="translate(1.12)" fill="#fff"/>
      </g>
      <g id="Gruppe_48" data-name="Gruppe 48" transform="translate(50.662 48.503)">
        <path id="Pfad_86" data-name="Pfad 86" d="M2.084,4.115V3.809C1.178,3.771.951,3.771.951,2.928V-.184c0-1.31.665-2.026,1.189-2.026.459,0,.635.642,1.168.642A.726.726,0,0,0,4.043-2.3c0-.526-.538-.825-1.053-.825A2.539,2.539,0,0,0,.916-1.677V-3.061C.19-2.8-.661-2.46-1.4-2.235v.16c.621.269.814.306.814.932V2.928c0,.844-.23.844-.99.881v.306Z" transform="translate(1.581 3.121)" fill="#fff"/>
      </g>
      <g id="Gruppe_49" data-name="Gruppe 49" transform="translate(112.148 48.612)">
        <path id="Pfad_87" data-name="Pfad 87" d="M3.6,2.949A2.669,2.669,0,0,1,1.35,4.461c-1.9,0-2.388-1.658-2.388-3.139,0-1.287.38-3.16,2.015-3.16A1.211,1.211,0,0,1,2.305-.725a.756.756,0,0,0,.709.8A.651.651,0,0,0,3.7-.577C3.657-1.637,2.354-2.237.958-2.237A3.533,3.533,0,0,0-2.728,1.486,3.439,3.439,0,0,0,.8,5.073,3.223,3.223,0,0,0,3.861,3.035Z" transform="translate(2.728 2.237)" fill="#fff"/>
      </g>
      <g id="Gruppe_50" data-name="Gruppe 50" transform="translate(119.929 44.497)">
        <path id="Pfad_88" data-name="Pfad 88" d="M2.03,6.393V6.087c-.742-.037-.974-.037-.974-.881V.945A2.251,2.251,0,0,1,2.918-.078C3.9-.078,4.425.736,4.425,1.8V5.206c0,.844-.234.844-.955.881v.306H7V6.087c-.777-.037-1.006-.037-1.006-.881V1.967a2.412,2.412,0,0,0-2.511-2.7A3.284,3.284,0,0,0,1.057.411v-5.26c-.758.271-1.711.533-2.474.821v.123c.461.1.906.246.906.742V5.206c0,.844-.232.844-1.029.881v.306Z" transform="translate(1.54 4.849)" fill="#fff"/>
      </g>
      <g id="Gruppe_51" data-name="Gruppe 51" transform="translate(26.691 48.534)">
        <path id="Pfad_89" data-name="Pfad 89" d="M2.043,4.1V3.791C1.3,3.754,1.07,3.754,1.07,2.91V-3.108c-.793.276-1.79.563-2.553.855v.16a1.723,1.723,0,0,1,.635.16c.32.195.32.642.32.985V2.91c0,.844-.227.844-1.022.881V4.1Z" transform="translate(1.55 3.108)" fill="#fff"/>
      </g>
      <g id="Gruppe_52" data-name="Gruppe 52" transform="translate(27.529 45.533)">
        <path id="Pfad_90" data-name="Pfad 90" d="M0,.512a.905.905,0,0,1,.909-.9.908.908,0,0,1,.916.9A.912.912,0,1,1,0,.512" transform="translate(0 0.388)" fill="#fff"/>
      </g>
      <g id="Gruppe_53" data-name="Gruppe 53" transform="translate(42.361 48.613)">
        <path id="Pfad_91" data-name="Pfad 91" d="M1.053,1.277H4.348c0-1.213-.728-1.85-1.463-1.85-.837,0-1.532.716-1.832,1.85m-.1.489a5.4,5.4,0,0,0-.06.821c0,1.683.6,3.141,2.471,3.141a2.865,2.865,0,0,0,2.3-1.512l.3.086A3.279,3.279,0,0,1,2.9,6.341,3.5,3.5,0,0,1-.8,2.752,3.559,3.559,0,0,1,2.836-.969,2.835,2.835,0,0,1,5.92,1.767Z" transform="translate(0.799 0.969)" fill="#fff"/>
      </g>
      <g id="Gruppe_54" data-name="Gruppe 54" transform="translate(65.741 48.79)">
        <path id="Pfad_92" data-name="Pfad 92" d="M1.887,4.8l.563-1.3-2.791-6c-.209-.447-.438-.832-1.09-.832v-.306H2.262v.306c-.35,0-.728.007-.842.313a.874.874,0,0,0,.063.624L3.24,1.67l1.6-3.686a1.237,1.237,0,0,0,.1-1.011c-.211-.325-.693-.306-.99-.306v-.306h2.9v.306a1.28,1.28,0,0,0-1.31.978L2.315,5.078c-.325.749-.735,1.69-1.743,1.69a.712.712,0,0,1-.728-.642.628.628,0,0,1,.67-.656c.2.014.373.074.57.093.429.037.658-.44.8-.765" transform="translate(1.431 3.639)" fill="#fff"/>
      </g>
      <g id="Gruppe_55" data-name="Gruppe 55" transform="translate(78.132 46.561)">
        <path id="Pfad_93" data-name="Pfad 93" d="M1.88,1.863A2.484,2.484,0,0,0,2.893.136c.074-.881-.389-1.18-.911-1.18a.958.958,0,0,0-.874.9,2.938,2.938,0,0,0,.45,1.414c.077.16.188.362.322.594M3.313,6.43A29.119,29.119,0,0,1,1.029,3.112,3.061,3.061,0,0,0-.037,5.333,1.748,1.748,0,0,0,1.678,7.177,2.431,2.431,0,0,0,3.313,6.43M4.581,5.5c-.051.1-.1.176-.153.274a3.325,3.325,0,0,0,.239.283,2.458,2.458,0,0,0,1.9,1,1.374,1.374,0,0,0,1.182-.635l.2.172A2.714,2.714,0,0,1,5.972,7.949a2.872,2.872,0,0,1-2.2-1L3.64,6.8A3.375,3.375,0,0,1,1.229,7.949,2.376,2.376,0,0,1-1.426,5.6c0-1.379,1.236-2.249,2.207-2.914C.584,2.359.438,2.083.354,1.9A3.966,3.966,0,0,1-.1.474,1.869,1.869,0,0,1,1.947-1.413c1.277,0,1.966.668,1.892,1.63C3.779,1.035,2.9,1.684,2.1,2.262A37.417,37.417,0,0,0,4.138,5.408c.046-.067.081-.134.111-.179a4.582,4.582,0,0,0,.723-2.1c0-.5-.315-.638-.779-.638V2.225H6.876v.269c-.895.012-1.3.784-1.574,1.512a16.057,16.057,0,0,1-.721,1.5" transform="translate(1.426 1.413)" fill="#fff"/>
      </g>
    </g>
  </g>
</svg>
